<svg width="778" height="102" viewBox="0 0 778 102" fill="none" xmlns="http://www.w3.org/2000/svg">
<g filter="url(#filter0_d_646_6191)">
<mask id="mask0_646_6191" style="mask-type:alpha" maskUnits="userSpaceOnUse" x="390" y="0" width="45" height="90">
<path d="M390.66 0H434.067V16.98C434.067 20.2937 431.38 22.98 428.067 22.98H413.64V31.2783H428.96V48.2583C428.96 51.572 426.274 54.2583 422.96 54.2583H413.64V89.3667H390.66V0Z" fill="#FFE08B"/>
</mask>
<g mask="url(#mask0_646_6191)">
<path d="M405.98 15.3198H413.64V31.2782H405.98V15.3198Z" fill="#5595F4"/>
<rect x="405.98" y="46.5981" width="7.66" height="42.7683" fill="#5595F4"/>
<path d="M421.3 31.2783L428.96 38.9383V54.2583H418.428L421.3 31.2783Z" fill="#5595F4"/>
<path d="M426.407 0L434.067 7.66V22.98H420.662L426.407 0Z" fill="#5595F4"/>
<path d="M423.534 12.4473L405.98 15.3198L413.64 22.9798H434.067L423.534 12.4473Z" fill="#225EBE"/>
<path d="M419.066 44.3643L405.98 46.5984L413.64 54.2584H428.96L419.066 44.3643Z" fill="#225EBE"/>
<path d="M405.98 81.7065H390.66L398.32 89.3665H413.64L405.98 81.7065Z" fill="#225EBE"/>
<path fill-rule="evenodd" clip-rule="evenodd" d="M390.66 0H405.98H426.407V9.32C426.407 12.6337 423.72 15.32 420.407 15.32H405.98V31.2783H421.3V40.5983C421.3 43.912 418.614 46.5983 415.3 46.5983H405.98V81.7067H390.66V15.32V0Z" fill="#CBE0FF"/>
</g>
</g>
<g filter="url(#filter1_d_646_6191)">
<mask id="mask1_646_6191" style="mask-type:alpha" maskUnits="userSpaceOnUse" x="458" y="0" width="45" height="90">
<path fill-rule="evenodd" clip-rule="evenodd" d="M464.749 0C461.435 0 458.749 2.68629 458.749 6V83.3667C458.749 86.6804 461.435 89.3667 464.749 89.3667H496.156C499.469 89.3667 502.156 86.6804 502.156 83.3667V6C502.156 2.68629 499.469 0 496.156 0L464.749 0Z" fill="#D9E0E7"/>
</mask>
<g mask="url(#mask1_646_6191)">
<path d="M502.156 13.6597V89.3663L494.496 81.8242L486.836 73.7272L494.496 53.2268V29.1862V7.65967H494.815L496.156 7.65967C499.469 7.65967 502.156 10.346 502.156 13.6597Z" fill="#FF6C78"/>
<path d="M479.176 68.9398V8.39723V5.81088L474.069 0.638184V68.9398H479.176Z" fill="#FF6C78"/>
<path fill-rule="evenodd" clip-rule="evenodd" d="M478.218 75.9614L486.836 74.0464L494.496 81.7064L502.156 89.3664H472.409C470.503 89.3664 468.804 88.4773 467.705 87.0911V88.4089L460.026 80.7297L467.705 80.7297V81.7064H484.557C482.082 81.7064 479.861 80.1873 478.965 77.8811L478.218 75.9614Z" fill="#FF4756"/>
<path d="M501.198 8.9559L493.538 1.2959V8.9559H501.198Z" fill="#FF6C78"/>
</g>
<path d="M481.729 23.9373L474.069 16.2773V13.4048H481.729V23.9373Z" fill="#FF4756"/>
<path fill-rule="evenodd" clip-rule="evenodd" d="M464.749 0C461.435 0 458.749 2.68629 458.749 5.99999V75.7067C458.749 79.0204 461.435 81.7067 464.749 81.7067H488.496C491.809 81.7067 494.496 79.0204 494.496 75.7067V6C494.496 2.68629 491.809 0 488.496 0L464.749 0ZM479.176 15.9583C479.176 14.5482 478.032 13.405 476.622 13.405V13.405C475.212 13.405 474.069 14.5482 474.069 15.9583V65.7483C474.069 67.1585 475.212 68.3017 476.622 68.3017V68.3017C478.032 68.3017 479.176 67.1585 479.176 65.7483V15.9583Z" fill="#FFC1C6"/>
</g>
<g filter="url(#filter2_d_646_6191)">
<mask id="mask2_646_6191" style="mask-type:alpha" maskUnits="userSpaceOnUse" x="527" y="0" width="45" height="90">
<path d="M527.689 0H571.096V3.83V32.3C571.096 35.6137 568.409 38.3 565.096 38.3H563.436L571.096 46.5983V89.3667H527.689V0Z" fill="#C6A8EC"/>
</mask>
<g mask="url(#mask2_646_6191)">
<path d="M543.009 13.4048H550.669V89.3665L543.009 81.7065V13.4048Z" fill="#9A76C8"/>
<rect x="563.436" y="38.2998" width="7.66" height="51.0667" fill="#9A76C8"/>
<path d="M563.436 81.7065H548.116L555.776 89.3665H571.096L563.436 81.7065Z" fill="#734DA2"/>
<path d="M543.009 81.7065H527.689L535.349 89.3665H550.669L543.009 81.7065Z" fill="#734DA2"/>
<path d="M543.009 46.5981L550.35 53.939L550.35 44.0448L543.009 44.0448L543.009 46.5981Z" fill="#734DA2"/>
<path d="M563.436 7.66016H565.096C568.409 7.66016 571.096 10.3464 571.096 13.6602V32.3002C571.096 35.6139 568.409 38.3002 565.096 38.3002H563.436L555.776 30.6402L563.436 7.66016Z" fill="#9A76C8"/>
<path d="M559.606 26.8101L555.776 30.6401L563.436 38.3001H571.096L559.606 26.8101Z" fill="#734DA2"/>
<path d="M543.009 15.9585L550.35 23.2993L550.35 13.4051L543.009 13.4051L543.009 15.9585Z" fill="#734DA2"/>
<path d="M569.819 8.63673L562.478 1.2959V8.63673H569.819Z" fill="#9A76C8"/>
<path fill-rule="evenodd" clip-rule="evenodd" d="M548.116 81.7067H563.436V38.3L555.776 30.64H557.436C560.749 30.64 563.436 27.9537 563.436 24.64V6C563.436 2.68629 560.749 0 557.436 0H527.689L527.689 81.7067H543.009V46.5983C543.009 45.1882 544.152 44.045 545.562 44.045V44.045C546.972 44.045 548.116 45.1882 548.116 46.5983V81.7067ZM545.562 30.64C546.972 30.64 548.116 29.4968 548.116 28.0867L548.116 15.9583C548.116 14.5482 546.972 13.405 545.562 13.405V13.405C544.152 13.405 543.009 14.5482 543.009 15.9583L543.009 28.0867C543.009 29.4968 544.152 30.64 545.562 30.64V30.64Z" fill="#E2CCFD"/>
</g>
</g>
<g filter="url(#filter3_d_646_6191)">
<path d="M687.357 7.66L679.527 0V66.3867H687.031L687.357 7.66Z" fill="#FFC41F"/>
<path d="M703.018 74.0467L695.188 66.3867V81.7067L703.018 89.3667V74.0467Z" fill="#FFC41F"/>
<path d="M695.188 81.7065H663.867L671.697 89.3665H703.018L695.188 81.7065Z" fill="#FF8800"/>
<path d="M679.527 0H663.867V81.7067H695.188V66.3867H679.527V0Z" fill="#FFEEBE"/>
</g>
<g filter="url(#filter4_d_646_6191)">
<path d="M750.68 7.66L743.02 0V66.3867H750.361L750.68 7.66Z" fill="#5595F4"/>
<path d="M766 74.0467L758.34 66.3867V81.7067L766 89.3667V74.0467Z" fill="#5595F4"/>
<path d="M758.34 81.7065H727.7L735.36 89.3665H766L758.34 81.7065Z" fill="#225EBE"/>
<path d="M743.02 0L727.7 0V81.7067H758.34V66.3867H743.02V0Z" fill="#CBE0FF"/>
</g>
<g filter="url(#filter5_d_646_6191)">
<path d="M144.689 22.9798L137.029 15.3198H152.349L160.009 22.9798H144.689Z" fill="#FF4756"/>
<path d="M144.689 89.3665L137.029 81.7065H152.349L160.009 89.3665H144.689Z" fill="#FF4756"/>
<path d="M160.009 7.66L152.349 0V15.32L160.009 22.98V7.66Z" fill="#FF6C78"/>
<path d="M160.009 28.0868L152.349 20.4268V81.7068L160.009 89.3668V28.0868Z" fill="#FF6C78"/>
<path fill-rule="evenodd" clip-rule="evenodd" d="M152.349 0H137.029V15.32H152.349V0ZM152.349 20.4267H137.029V81.7067H152.349V20.4267Z" fill="#FFC1C6"/>
</g>
<g filter="url(#filter6_d_646_6191)">
<path d="M83.7093 13.4048H91.5195V89.3665L83.7093 81.7065V13.4048Z" fill="#5595F4"/>
<path d="M91.5195 23.9373L83.7093 16.2773V13.4048H91.5195V23.9373Z" fill="#225EBE"/>
<path d="M104.536 81.7065H88.9161L96.7263 89.3665H112.347L104.536 81.7065Z" fill="#225EBE"/>
<path d="M104.536 7.66016H106.347C109.66 7.66016 112.347 10.3464 112.347 13.6602V89.3668L104.536 81.7068V7.66016Z" fill="#5595F4"/>
<path d="M111.045 8.63673L103.56 1.2959V8.63673H111.045Z" fill="#5595F4"/>
<path d="M83.7093 81.7065H68.0889L75.8991 89.3665H91.5195L83.7093 81.7065Z" fill="#225EBE"/>
<path d="M104.536 81.7065L88.916 81.7065L88.9161 16.0083C88.9161 14.5705 87.7505 13.4049 86.3127 13.4049V13.4049C84.8748 13.4049 83.7093 14.5705 83.7093 16.0083L83.7092 81.7065L68.0889 81.7065L68.0889 -0.000117566L75.899 -0.000116896L83.7093 7.65988L83.7093 5.99988C83.7093 2.68617 86.3955 -0.000115996 89.7093 -0.000115712L98.5364 -0.000114955C101.85 -0.000114671 104.536 2.68618 104.536 5.99989L104.536 81.7065Z" fill="#CBE0FF"/>
</g>
<g filter="url(#filter7_d_646_6191)">
<mask id="mask3_646_6191" style="mask-type:alpha" maskUnits="userSpaceOnUse" x="184" y="0" width="45" height="90">
<path d="M184.691 6C184.691 2.68629 187.377 0 190.691 0L222.098 0C225.411 0 228.098 2.68629 228.098 6V83.3667C228.098 86.6804 225.411 89.3667 222.098 89.3667H190.691C187.377 89.3667 184.691 86.6804 184.691 83.3667V6Z" fill="#C4C4C4"/>
</mask>
<g mask="url(#mask3_646_6191)">
<path d="M228.098 83.3667C228.098 86.6804 225.411 89.3667 222.098 89.3667H198.351C195.037 89.3667 192.351 86.6804 192.351 83.3667V59.365H201.671C204.985 59.365 207.671 62.0513 207.671 65.365V73.4084C207.671 74.8185 208.814 75.9617 210.224 75.9617V75.9617C211.635 75.9617 212.778 74.8185 212.778 73.4084V54.2584H198.351C195.037 54.2584 192.351 51.5721 192.351 48.2584V13.66C192.351 10.3463 195.037 7.66003 198.351 7.66003H222.098C225.411 7.66003 228.098 10.3463 228.098 13.66V33.8317H218.778C215.464 33.8317 212.778 31.1454 212.778 27.8317V23.6184C212.778 22.2082 211.635 21.065 210.224 21.065V21.065C208.814 21.065 207.671 22.2082 207.671 23.6184V38.9384H222.098C225.411 38.9384 228.098 41.6247 228.098 44.9384V83.3667Z" fill="#9A76C8"/>
<path d="M200.011 15.3198H207.671V32.5548H200.011V15.3198Z" fill="#9A76C8"/>
<path d="M226.821 39.9151L219.48 32.5742V39.9151H226.821Z" fill="#9A76C8"/>
<path fill-rule="evenodd" clip-rule="evenodd" d="M212.778 74.0469L228.098 89.3669H196.5C195.395 89.3669 194.391 88.9347 193.647 88.23V88.4094L185.968 80.7302L192.351 80.7302V74.0469H212.778Z" fill="#734DA2"/>
<path d="M185.968 45.6216L193.647 53.3008L193.647 45.6216L185.968 45.6216Z" fill="#734DA2"/>
<path d="M200.011 15.9585L207.352 23.2993L207.352 13.4051L200.011 13.4051L200.011 15.9585Z" fill="#734DA2"/>
<path d="M226.821 8.63673L219.48 1.2959V8.63673H226.821Z" fill="#9A76C8"/>
<path fill-rule="evenodd" clip-rule="evenodd" d="M213.416 32.2167L206.094 24.895L213.435 24.895V26.1717H220.438L228.098 33.8317H213.416V32.2167Z" fill="#734DA2"/>
<path d="M205.118 46.5981H193.628V54.2581H205.118V46.5981Z" fill="#734DA2"/>
<path d="M198.715 60.3289H206.375L202.545 56.4989L199.354 53.3073L198.715 52.6689V60.3289Z" fill="#9A76C8"/>
<path d="M220.438 75.7065C220.438 79.0203 217.751 81.7065 214.438 81.7065H190.691C187.377 81.7065 184.691 79.0202 184.691 75.7065V51.7049H194.011C197.325 51.7049 200.011 54.3912 200.011 57.7049V65.7482C200.011 67.1584 201.154 68.3015 202.564 68.3015V68.3015C203.975 68.3015 205.118 67.1584 205.118 65.7482V46.5982H190.691C187.377 46.5982 184.691 43.9119 184.691 40.5982V5.99987C184.691 2.68616 187.377 -0.0001297 190.691 -0.0001297H214.438C217.751 -0.0001297 220.438 2.68616 220.438 5.99986V26.1715H211.118C207.804 26.1715 205.118 23.4852 205.118 20.1715V15.9582C205.118 14.548 203.975 13.4049 202.564 13.4049V13.4049C201.154 13.4049 200.011 14.548 200.011 15.9582V31.2782H214.438C217.751 31.2782 220.438 33.9645 220.438 37.2782V75.7065Z" fill="#E2CCFD"/>
</g>
</g>
<g filter="url(#filter8_d_646_6191)">
<mask id="mask4_646_6191" style="mask-type:alpha" maskUnits="userSpaceOnUse" x="253" y="0" width="45" height="90">
<path fill-rule="evenodd" clip-rule="evenodd" d="M259.631 0C256.317 0 253.631 2.68629 253.631 6V83.3667C253.631 86.6804 256.317 89.3667 259.631 89.3667H291.038C294.351 89.3667 297.038 86.6804 297.038 83.3667V6C297.038 2.68629 294.351 0 291.038 0H259.631Z" fill="#D9E0E7"/>
</mask>
<g mask="url(#mask4_646_6191)">
<path d="M297.038 13.6597V89.3663L289.378 81.8242L281.718 73.7272L289.378 53.2268V29.1862V7.65967H289.697H291.038C294.351 7.65967 297.038 10.346 297.038 13.6597Z" fill="#52D188"/>
<path d="M274.058 68.9398V8.39723V5.81088L268.951 0.638184V68.9398H274.058Z" fill="#52D188"/>
<path fill-rule="evenodd" clip-rule="evenodd" d="M273.1 75.9614L281.718 74.0464L289.378 81.7064L297.038 89.3664H267.291C265.385 89.3664 263.686 88.4773 262.587 87.0911V88.4089L254.908 80.7297L262.587 80.7297V81.7064H279.439C276.964 81.7064 274.744 80.1873 273.847 77.8811L273.1 75.9614Z" fill="#27AE60"/>
<path d="M296.08 8.9559L288.42 1.2959V8.9559H296.08Z" fill="#52D188"/>
</g>
<path d="M276.611 23.9373L268.951 16.2773V13.4048H276.611V23.9373Z" fill="#27AE60"/>
<path fill-rule="evenodd" clip-rule="evenodd" d="M259.631 0C256.317 0 253.631 2.68629 253.631 5.99999V75.7067C253.631 79.0204 256.317 81.7067 259.631 81.7067H283.378C286.691 81.7067 289.378 79.0204 289.378 75.7067V6C289.378 2.68629 286.691 0 283.378 0H259.631ZM274.058 15.9583C274.058 14.5482 272.915 13.405 271.504 13.405V13.405C270.094 13.405 268.951 14.5482 268.951 15.9583V65.7483C268.951 67.1585 270.094 68.3017 271.504 68.3017V68.3017C272.915 68.3017 274.058 67.1585 274.058 65.7483V15.9583Z" fill="#C6FFDE"/>
</g>
<g filter="url(#filter9_d_646_6191)">
<mask id="mask5_646_6191" style="mask-type:alpha" maskUnits="userSpaceOnUse" x="0" y="0" width="44" height="90">
<path d="M0 0L24.8038 0L43.4067 0L43.4067 83.3667C43.4067 86.6804 40.7204 89.3667 37.4067 89.3667H6.00001C2.6863 89.3667 0 86.6804 0 83.3667L0 0Z" fill="#CBE0FF"/>
</mask>
<g mask="url(#mask5_646_6191)">
<path fill-rule="evenodd" clip-rule="evenodd" d="M43.4067 89.3667L43.4067 7.66L35.7467 0L35.7467 53.9392H28.0867V74.685L35.7467 82.345V81.7067L43.4067 89.3667Z" fill="#FFC41F"/>
<path d="M20.4267 68.3017L20.4267 7.75905V5.1727L15.32 0L15.32 68.3017H20.4267Z" fill="#FFC41F"/>
<path fill-rule="evenodd" clip-rule="evenodd" d="M0.638367 74.0469H11.1709V80.9266L30.64 76.6002L43.4066 89.3668H13.66C10.3463 89.3668 7.65998 86.6805 7.65996 83.3668L7.65996 81.7069H2.55337L0.638367 79.7919L0.638367 77.8769L0.638367 74.0469Z" fill="#FF8800"/>
<path d="M1.27664 80.73L8.95581 88.4092L8.95581 80.73L1.27664 80.73Z" fill="#FF8800"/>
</g>
<path d="M0 0L15.32 0L15.32 65.7483C15.32 67.1585 16.4632 68.3017 17.8733 68.3017V68.3017C19.2835 68.3017 20.4267 67.1585 20.4267 65.7483L20.4267 0L35.7467 0L35.7467 75.7067C35.7467 79.0204 33.0604 81.7067 29.7467 81.7067H6C2.68629 81.7067 0 79.0204 0 75.7067L0 0Z" fill="#FFEEBE"/>
</g>
<g filter="url(#filter10_d_646_6191)">
<path d="M337.04 13.4048H344.7V89.3665L337.04 81.7065V13.4048Z" fill="#FFC41F"/>
<path d="M344.7 23.9373L337.04 16.2773V13.4048H344.7V23.9373Z" fill="#FF8800"/>
<path d="M357.467 81.7065H342.147L349.807 89.3665H365.127L357.467 81.7065Z" fill="#FF8800"/>
<path d="M357.467 7.66016H359.127C362.44 7.66016 365.127 10.3464 365.127 13.6602V89.3668L357.467 81.7068V7.66016Z" fill="#FFC41F"/>
<path d="M363.85 8.63673L356.509 1.2959V8.63673H363.85Z" fill="#FFC41F"/>
<path d="M337.04 81.7065H321.72L329.38 89.3665H344.7L337.04 81.7065Z" fill="#FF8800"/>
<path d="M357.467 81.7065L342.147 81.7065L342.147 15.9582C342.147 14.548 341.003 13.4049 339.593 13.4049V13.4049C338.183 13.4049 337.04 14.548 337.04 15.9582L337.04 81.7065L321.72 81.7065L321.72 -0.000117566L329.38 -0.000116896L337.04 7.65988L337.04 5.99988C337.04 2.68617 339.726 -0.000115992 343.04 -0.000115702L351.467 -0.000114965C354.78 -0.000114676 357.467 2.68618 357.467 5.99989L357.467 81.7065Z" fill="#FFEEBE"/>
</g>
<g filter="url(#filter11_d_646_6191)">
<path d="M631.524 81.7065H616.204L623.864 89.3665H639.184L631.524 81.7065Z" fill="#27AE60"/>
<path d="M611.098 81.7065H595.778L603.438 89.3665H618.758L611.098 81.7065Z" fill="#27AE60"/>
<path d="M631.525 7.66016H633.185C636.498 7.66016 639.185 10.3464 639.185 13.6602V89.3668L631.525 81.7068V7.66016Z" fill="#52D188"/>
<path d="M637.908 8.63673L630.567 1.2959V8.63673H637.908Z" fill="#52D188"/>
<path d="M611.098 13.4048H618.758V89.3665L611.098 81.7065V13.4048Z" fill="#52D188"/>
<path d="M618.758 23.9373L611.098 16.2773V13.4048H618.758V23.9373Z" fill="#27AE60"/>
<path d="M618.758 54.5774L611.098 46.9174V44.0449H618.758V54.5774Z" fill="#27AE60"/>
<path fill-rule="evenodd" clip-rule="evenodd" d="M616.204 81.7067H631.524L631.525 6C631.525 2.68629 628.838 0 625.525 0H601.778C598.464 0 595.778 2.68629 595.778 5.99999L595.778 81.7067H611.098V46.5983C611.098 45.1882 612.241 44.045 613.651 44.045V44.045C615.061 44.045 616.204 45.1882 616.204 46.5983V81.7067ZM616.204 30.64L616.205 15.9583C616.205 14.5482 615.061 13.405 613.651 13.405V13.405C612.241 13.405 611.098 14.5482 611.098 15.9583L611.098 30.64H616.204Z" fill="#C6FFDE"/>
</g>
<defs>
<filter id="filter0_d_646_6191" x="390.66" y="0" width="55.4067" height="101.367" filterUnits="userSpaceOnUse" color-interpolation-filters="sRGB">
<feFlood flood-opacity="0" result="BackgroundImageFix"/>
<feColorMatrix in="SourceAlpha" type="matrix" values="0 0 0 0 0 0 0 0 0 0 0 0 0 0 0 0 0 0 127 0" result="hardAlpha"/>
<feOffset dx="12" dy="12"/>
<feComposite in2="hardAlpha" operator="out"/>
<feColorMatrix type="matrix" values="0 0 0 0 0.176471 0 0 0 0 0.180392 0 0 0 0 0.207843 0 0 0 0.15 0"/>
<feBlend mode="normal" in2="BackgroundImageFix" result="effect1_dropShadow_646_6191"/>
<feBlend mode="normal" in="SourceGraphic" in2="effect1_dropShadow_646_6191" result="shape"/>
</filter>
<filter id="filter1_d_646_6191" x="458.749" y="0" width="55.4066" height="101.367" filterUnits="userSpaceOnUse" color-interpolation-filters="sRGB">
<feFlood flood-opacity="0" result="BackgroundImageFix"/>
<feColorMatrix in="SourceAlpha" type="matrix" values="0 0 0 0 0 0 0 0 0 0 0 0 0 0 0 0 0 0 127 0" result="hardAlpha"/>
<feOffset dx="12" dy="12"/>
<feComposite in2="hardAlpha" operator="out"/>
<feColorMatrix type="matrix" values="0 0 0 0 0.176471 0 0 0 0 0.180392 0 0 0 0 0.207843 0 0 0 0.15 0"/>
<feBlend mode="normal" in2="BackgroundImageFix" result="effect1_dropShadow_646_6191"/>
<feBlend mode="normal" in="SourceGraphic" in2="effect1_dropShadow_646_6191" result="shape"/>
</filter>
<filter id="filter2_d_646_6191" x="527.689" y="0" width="55.4066" height="101.367" filterUnits="userSpaceOnUse" color-interpolation-filters="sRGB">
<feFlood flood-opacity="0" result="BackgroundImageFix"/>
<feColorMatrix in="SourceAlpha" type="matrix" values="0 0 0 0 0 0 0 0 0 0 0 0 0 0 0 0 0 0 127 0" result="hardAlpha"/>
<feOffset dx="12" dy="12"/>
<feComposite in2="hardAlpha" operator="out"/>
<feColorMatrix type="matrix" values="0 0 0 0 0.176471 0 0 0 0 0.180392 0 0 0 0 0.207843 0 0 0 0.15 0"/>
<feBlend mode="normal" in2="BackgroundImageFix" result="effect1_dropShadow_646_6191"/>
<feBlend mode="normal" in="SourceGraphic" in2="effect1_dropShadow_646_6191" result="shape"/>
</filter>
<filter id="filter3_d_646_6191" x="663.867" y="0" width="51.1511" height="101.367" filterUnits="userSpaceOnUse" color-interpolation-filters="sRGB">
<feFlood flood-opacity="0" result="BackgroundImageFix"/>
<feColorMatrix in="SourceAlpha" type="matrix" values="0 0 0 0 0 0 0 0 0 0 0 0 0 0 0 0 0 0 127 0" result="hardAlpha"/>
<feOffset dx="12" dy="12"/>
<feComposite in2="hardAlpha" operator="out"/>
<feColorMatrix type="matrix" values="0 0 0 0 0.176471 0 0 0 0 0.180392 0 0 0 0 0.207843 0 0 0 0.15 0"/>
<feBlend mode="normal" in2="BackgroundImageFix" result="effect1_dropShadow_646_6191"/>
<feBlend mode="normal" in="SourceGraphic" in2="effect1_dropShadow_646_6191" result="shape"/>
</filter>
<filter id="filter4_d_646_6191" x="727.7" y="0" width="50.3" height="101.367" filterUnits="userSpaceOnUse" color-interpolation-filters="sRGB">
<feFlood flood-opacity="0" result="BackgroundImageFix"/>
<feColorMatrix in="SourceAlpha" type="matrix" values="0 0 0 0 0 0 0 0 0 0 0 0 0 0 0 0 0 0 127 0" result="hardAlpha"/>
<feOffset dx="12" dy="12"/>
<feComposite in2="hardAlpha" operator="out"/>
<feColorMatrix type="matrix" values="0 0 0 0 0.176471 0 0 0 0 0.180392 0 0 0 0 0.207843 0 0 0 0.15 0"/>
<feBlend mode="normal" in2="BackgroundImageFix" result="effect1_dropShadow_646_6191"/>
<feBlend mode="normal" in="SourceGraphic" in2="effect1_dropShadow_646_6191" result="shape"/>
</filter>
<filter id="filter5_d_646_6191" x="137.029" y="0" width="34.98" height="101.367" filterUnits="userSpaceOnUse" color-interpolation-filters="sRGB">
<feFlood flood-opacity="0" result="BackgroundImageFix"/>
<feColorMatrix in="SourceAlpha" type="matrix" values="0 0 0 0 0 0 0 0 0 0 0 0 0 0 0 0 0 0 127 0" result="hardAlpha"/>
<feOffset dx="12" dy="12"/>
<feComposite in2="hardAlpha" operator="out"/>
<feColorMatrix type="matrix" values="0 0 0 0 0.176471 0 0 0 0 0.180392 0 0 0 0 0.207843 0 0 0 0.15 0"/>
<feBlend mode="normal" in2="BackgroundImageFix" result="effect1_dropShadow_646_6191"/>
<feBlend mode="normal" in="SourceGraphic" in2="effect1_dropShadow_646_6191" result="shape"/>
</filter>
<filter id="filter6_d_646_6191" x="68.0889" y="0" width="56.2578" height="101.367" filterUnits="userSpaceOnUse" color-interpolation-filters="sRGB">
<feFlood flood-opacity="0" result="BackgroundImageFix"/>
<feColorMatrix in="SourceAlpha" type="matrix" values="0 0 0 0 0 0 0 0 0 0 0 0 0 0 0 0 0 0 127 0" result="hardAlpha"/>
<feOffset dx="12" dy="12"/>
<feComposite in2="hardAlpha" operator="out"/>
<feColorMatrix type="matrix" values="0 0 0 0 0.176471 0 0 0 0 0.180392 0 0 0 0 0.207843 0 0 0 0.15 0"/>
<feBlend mode="normal" in2="BackgroundImageFix" result="effect1_dropShadow_646_6191"/>
<feBlend mode="normal" in="SourceGraphic" in2="effect1_dropShadow_646_6191" result="shape"/>
</filter>
<filter id="filter7_d_646_6191" x="184.691" y="0" width="55.4067" height="101.367" filterUnits="userSpaceOnUse" color-interpolation-filters="sRGB">
<feFlood flood-opacity="0" result="BackgroundImageFix"/>
<feColorMatrix in="SourceAlpha" type="matrix" values="0 0 0 0 0 0 0 0 0 0 0 0 0 0 0 0 0 0 127 0" result="hardAlpha"/>
<feOffset dx="12" dy="12"/>
<feComposite in2="hardAlpha" operator="out"/>
<feColorMatrix type="matrix" values="0 0 0 0 0.176471 0 0 0 0 0.180392 0 0 0 0 0.207843 0 0 0 0.15 0"/>
<feBlend mode="normal" in2="BackgroundImageFix" result="effect1_dropShadow_646_6191"/>
<feBlend mode="normal" in="SourceGraphic" in2="effect1_dropShadow_646_6191" result="shape"/>
</filter>
<filter id="filter8_d_646_6191" x="253.631" y="0" width="55.4067" height="101.367" filterUnits="userSpaceOnUse" color-interpolation-filters="sRGB">
<feFlood flood-opacity="0" result="BackgroundImageFix"/>
<feColorMatrix in="SourceAlpha" type="matrix" values="0 0 0 0 0 0 0 0 0 0 0 0 0 0 0 0 0 0 127 0" result="hardAlpha"/>
<feOffset dx="12" dy="12"/>
<feComposite in2="hardAlpha" operator="out"/>
<feColorMatrix type="matrix" values="0 0 0 0 0.176471 0 0 0 0 0.180392 0 0 0 0 0.207843 0 0 0 0.15 0"/>
<feBlend mode="normal" in2="BackgroundImageFix" result="effect1_dropShadow_646_6191"/>
<feBlend mode="normal" in="SourceGraphic" in2="effect1_dropShadow_646_6191" result="shape"/>
</filter>
<filter id="filter9_d_646_6191" x="0" y="0" width="55.4067" height="101.367" filterUnits="userSpaceOnUse" color-interpolation-filters="sRGB">
<feFlood flood-opacity="0" result="BackgroundImageFix"/>
<feColorMatrix in="SourceAlpha" type="matrix" values="0 0 0 0 0 0 0 0 0 0 0 0 0 0 0 0 0 0 127 0" result="hardAlpha"/>
<feOffset dx="12" dy="12"/>
<feComposite in2="hardAlpha" operator="out"/>
<feColorMatrix type="matrix" values="0 0 0 0 0.176471 0 0 0 0 0.180392 0 0 0 0 0.207843 0 0 0 0.15 0"/>
<feBlend mode="normal" in2="BackgroundImageFix" result="effect1_dropShadow_646_6191"/>
<feBlend mode="normal" in="SourceGraphic" in2="effect1_dropShadow_646_6191" result="shape"/>
</filter>
<filter id="filter10_d_646_6191" x="321.72" y="0" width="55.4067" height="101.367" filterUnits="userSpaceOnUse" color-interpolation-filters="sRGB">
<feFlood flood-opacity="0" result="BackgroundImageFix"/>
<feColorMatrix in="SourceAlpha" type="matrix" values="0 0 0 0 0 0 0 0 0 0 0 0 0 0 0 0 0 0 127 0" result="hardAlpha"/>
<feOffset dx="12" dy="12"/>
<feComposite in2="hardAlpha" operator="out"/>
<feColorMatrix type="matrix" values="0 0 0 0 0.176471 0 0 0 0 0.180392 0 0 0 0 0.207843 0 0 0 0.15 0"/>
<feBlend mode="normal" in2="BackgroundImageFix" result="effect1_dropShadow_646_6191"/>
<feBlend mode="normal" in="SourceGraphic" in2="effect1_dropShadow_646_6191" result="shape"/>
</filter>
<filter id="filter11_d_646_6191" x="595.778" y="0" width="55.4067" height="101.367" filterUnits="userSpaceOnUse" color-interpolation-filters="sRGB">
<feFlood flood-opacity="0" result="BackgroundImageFix"/>
<feColorMatrix in="SourceAlpha" type="matrix" values="0 0 0 0 0 0 0 0 0 0 0 0 0 0 0 0 0 0 127 0" result="hardAlpha"/>
<feOffset dx="12" dy="12"/>
<feComposite in2="hardAlpha" operator="out"/>
<feColorMatrix type="matrix" values="0 0 0 0 0.176471 0 0 0 0 0.180392 0 0 0 0 0.207843 0 0 0 0.15 0"/>
<feBlend mode="normal" in2="BackgroundImageFix" result="effect1_dropShadow_646_6191"/>
<feBlend mode="normal" in="SourceGraphic" in2="effect1_dropShadow_646_6191" result="shape"/>
</filter>
</defs>
</svg>
