<svg width="1154" height="152" viewBox="0 0 1154 152" fill="none" xmlns="http://www.w3.org/2000/svg">
<g filter="url(#filter0_d_652_6403)">
<path d="M1118 12L1106 0V104H1117.5L1118 12Z" fill="#5595F4"/>
<path d="M1142 116L1130 104V128L1142 140V116Z" fill="#5595F4"/>
<path d="M1130 128H1082L1094 140H1142L1130 128Z" fill="#225EBE"/>
<path d="M1106 0L1082 0V128H1130V104H1106V0Z" fill="#CBE0FF"/>
</g>
<g filter="url(#filter1_d_652_6403)">
<path d="M1024 12L1012 0V104H1023.5L1024 12Z" fill="#FFC41F"/>
<path d="M1048 116L1036 104V128L1048 140V116Z" fill="#FFC41F"/>
<path d="M1036 128H988L1000 140H1048L1036 128Z" fill="#FF8800"/>
<path d="M1012 0H988V128H1036V104H1012V0Z" fill="#FFEEBE"/>
</g>
<g filter="url(#filter2_d_652_6403)">
<path d="M942 128H918L930 140H954L942 128Z" fill="#27AE60"/>
<path d="M910 128H886L898 140H922L910 128Z" fill="#27AE60"/>
<path d="M942 12H948C951.314 12 954 14.6863 954 18V140L942 128V12Z" fill="#52D188"/>
<path d="M952 13.5298L940.5 2.02979V13.5298H952Z" fill="#52D188"/>
<path d="M910 21H922V140L910 128V21Z" fill="#52D188"/>
<path d="M922 37.5L910 25.5V21H922V37.5Z" fill="#27AE60"/>
<path d="M922 85.5L910 73.5V69H922V85.5Z" fill="#27AE60"/>
<path fill-rule="evenodd" clip-rule="evenodd" d="M918 128H942L942 6C942 2.68629 939.314 0 936 0H892C888.686 0 886 2.68629 886 6L886 128H910V73C910 70.7909 911.791 69 914 69V69C916.209 69 918 70.7909 918 73V128ZM918 48L918 25C918 22.7909 916.209 21 914 21V21C911.791 21 910 22.7909 910 25L910 48H918Z" fill="#C6FFDE"/>
</g>
<g filter="url(#filter3_d_652_6403)">
<mask id="mask0_652_6403" style="mask-type:alpha" maskUnits="userSpaceOnUse" x="784" y="0" width="68" height="140">
<path d="M784 0H852V6V54C852 57.3137 849.314 60 846 60H840L852 73V140H784V0Z" fill="#C6A8EC"/>
</mask>
<g mask="url(#mask0_652_6403)">
<path d="M808 21H820V140L808 128V21Z" fill="#9A76C8"/>
<rect x="840" y="60" width="12" height="80" fill="#9A76C8"/>
<path d="M840 128H816L828 140H852L840 128Z" fill="#734DA2"/>
<path d="M808 128H784L796 140H820L808 128Z" fill="#734DA2"/>
<path d="M808 73L819.5 84.5L819.5 69L808 69L808 73Z" fill="#734DA2"/>
<path d="M840 12H846C849.314 12 852 14.6863 852 18V54C852 57.3137 849.314 60 846 60H840L828 48L840 12Z" fill="#9A76C8"/>
<path d="M834 42L828 48L840 60H852L834 42Z" fill="#734DA2"/>
<path d="M808 25L819.5 36.5L819.5 21L808 21L808 25Z" fill="#734DA2"/>
<path d="M850 13.5298L838.5 2.02979V13.5298H850Z" fill="#9A76C8"/>
<path fill-rule="evenodd" clip-rule="evenodd" d="M816 128H840V60L828 48H834C837.314 48 840 45.3137 840 42V6C840 2.68629 837.314 0 834 0H784L784 128H808V73C808 70.7909 809.791 69 812 69V69C814.209 69 816 70.7909 816 73V128ZM812 48C814.209 48 816 46.2091 816 44L816 25C816 22.7909 814.209 21 812 21V21C809.791 21 808 22.7909 808 25L808 44C808 46.2091 809.791 48 812 48V48Z" fill="#E2CCFD"/>
</g>
</g>
<g filter="url(#filter4_d_652_6403)">
<mask id="mask1_652_6403" style="mask-type:alpha" maskUnits="userSpaceOnUse" x="0" y="0" width="68" height="140">
<path d="M0 0L38.8571 0L68 0L68 134C68 137.314 65.3137 140 62 140H6C2.68629 140 0 137.314 0 134L0 0Z" fill="#CBE0FF"/>
</mask>
<g mask="url(#mask1_652_6403)">
<path fill-rule="evenodd" clip-rule="evenodd" d="M68 140L68 12L56 0L56 84.5H44L44 117L56 129V128L68 140Z" fill="#FFC41F"/>
<path d="M32 107L32 12.1552V8.10345L24 0L24 107H32Z" fill="#FFC41F"/>
<path fill-rule="evenodd" clip-rule="evenodd" d="M1 116H17.5L17.5 126.778L48 120L67.9999 140H17.9999C14.6862 140 11.9999 137.314 11.9999 134L11.9999 128H4L1 125L1 122L1 116Z" fill="#FF8800"/>
<path d="M2 126.47L14.03 138.5L14.03 126.47L2 126.47Z" fill="#FF8800"/>
</g>
<path d="M0 0L24 0L24 103C24 105.209 25.7909 107 28 107V107C30.2091 107 32 105.209 32 103L32 0L56 0L56 122C56 125.314 53.3137 128 50 128H6C2.68629 128 0 125.314 0 122L0 0Z" fill="#FFEEBE"/>
</g>
<g filter="url(#filter5_d_652_6403)">
<path d="M216 36L204 24H228L240 36H216Z" fill="#FF4756"/>
<path d="M216 140L204 128H228L240 140H216Z" fill="#FF4756"/>
<path d="M240 12L228 0V24L240 36V12Z" fill="#FF6C78"/>
<path d="M240 44L228 32V128L240 140V44Z" fill="#FF6C78"/>
<path fill-rule="evenodd" clip-rule="evenodd" d="M228 0H204V24H228V0ZM228 32H204V128H228V32Z" fill="#FFC1C6"/>
</g>
<g filter="url(#filter6_d_652_6403)">
<mask id="mask2_652_6403" style="mask-type:alpha" maskUnits="userSpaceOnUse" x="274" y="0" width="68" height="140">
<path d="M274 6C274 2.6863 276.686 0 280 0L336 0C339.314 0 342 2.68629 342 6V134C342 137.314 339.314 140 336 140H280C276.686 140 274 137.314 274 134V6Z" fill="#C4C4C4"/>
</mask>
<g mask="url(#mask2_652_6403)">
<path d="M342 134C342 137.314 339.314 140 336 140H292C288.686 140 286 137.314 286 134V93H304C307.314 93 310 95.6863 310 99V115C310 117.209 311.791 119 314 119V119C316.209 119 318 117.209 318 115V85H292C288.686 85 286 82.3137 286 79V18C286 14.6863 288.686 12 292 12H336C339.314 12 342 14.6863 342 18V53H324C320.686 53 318 50.3137 318 47V37C318 34.7909 316.209 33 314 33V33C311.791 33 310 34.7909 310 37V61H336C339.314 61 342 63.6863 342 67V134Z" fill="#9A76C8"/>
<path d="M298 24H310V51H298V24Z" fill="#9A76C8"/>
<path d="M340 62.5298L328.5 51.0298V62.5298H340Z" fill="#9A76C8"/>
<path fill-rule="evenodd" clip-rule="evenodd" d="M318 116L342 140H292.5H292C290.478 140 289.088 139.433 288.03 138.499V138.5L288.021 138.491C287.84 138.331 287.669 138.16 287.509 137.979L276 126.47L286 126.47V116H318Z" fill="#734DA2"/>
<path d="M276 71.47L288.03 83.5L288.03 71.47L276 71.47Z" fill="#734DA2"/>
<path d="M298 25L309.5 36.5L309.5 21L298 21L298 25Z" fill="#734DA2"/>
<path d="M340 13.5298L328.5 2.02979V13.5298H340Z" fill="#9A76C8"/>
<path fill-rule="evenodd" clip-rule="evenodd" d="M319 50.47L307.53 39L319.03 39V41H330L342 53H319V50.47Z" fill="#734DA2"/>
<path d="M306 73H288V85H306V73Z" fill="#734DA2"/>
<path d="M295.97 94.5098H307.97L301.97 88.5098L296.97 83.5098L295.97 82.5098V94.5098Z" fill="#9A76C8"/>
<path d="M330 122C330 125.314 327.314 128 324 128H280C276.686 128 274 125.314 274 122V81H292C295.314 81 298 83.6863 298 87V103C298 105.209 299.791 107 302 107V107C304.209 107 306 105.209 306 103V73H280C276.686 73 274 70.3137 274 67V6C274 2.68629 276.686 0 280 0H324C327.314 0 330 2.68629 330 6V41H312C308.686 41 306 38.3137 306 35V25C306 22.7909 304.209 21 302 21V21C299.791 21 298 22.7909 298 25V49H324C327.314 49 330 51.6863 330 55V122Z" fill="#E2CCFD"/>
</g>
</g>
<g filter="url(#filter7_d_652_6403)">
<mask id="mask3_652_6403" style="mask-type:alpha" maskUnits="userSpaceOnUse" x="376" y="0" width="68" height="140">
<path fill-rule="evenodd" clip-rule="evenodd" d="M382 0C378.686 0 376 2.6863 376 6V134C376 137.314 378.686 140 382 140H438C441.314 140 444 137.314 444 134V6C444 2.68629 441.314 0 438 0H382Z" fill="#D9E0E7"/>
</mask>
<g mask="url(#mask3_652_6403)">
<path d="M444 18V140L432 128.185L420 115.5L432 83.3846V45.7231V12H432.5H438C441.314 12 444 14.6863 444 18Z" fill="#52D188"/>
<path d="M408 108V13.1552V9.10345L400 1V108H408Z" fill="#52D188"/>
<path fill-rule="evenodd" clip-rule="evenodd" d="M406.5 119L420 116L432 128L444 140H394C392.478 140 391.088 139.433 390.03 138.499V138.5L390.021 138.491C389.84 138.331 389.669 138.16 389.509 137.979L378 126.47L390.03 126.47V128H414.104C411.63 128 409.409 126.481 408.512 124.175L406.5 119Z" fill="#27AE60"/>
<path d="M442.5 14.0298L430.5 2.02979V14.0298H442.5Z" fill="#52D188"/>
</g>
<path d="M412 37.5L400 25.5V21H412V37.5Z" fill="#27AE60"/>
<path fill-rule="evenodd" clip-rule="evenodd" d="M382 0C378.686 0 376 2.68629 376 6V122C376 125.314 378.686 128 382 128H426C429.314 128 432 125.314 432 122V6C432 2.68629 429.314 0 426 0H382ZM408 25C408 22.7909 406.209 21 404 21V21C401.791 21 400 22.7909 400 25V103C400 105.209 401.791 107 404 107V107C406.209 107 408 105.209 408 103V25Z" fill="#C6FFDE"/>
</g>
<g filter="url(#filter8_d_652_6403)">
<path d="M502 21H514V140L502 128V21Z" fill="#FFC41F"/>
<path d="M514 37.5L502 25.5V21H514V37.5Z" fill="#FF8800"/>
<path d="M534 128H510L522 140H546L534 128Z" fill="#FF8800"/>
<path d="M534 12H540C543.314 12 546 14.6863 546 18V140L534 128V12Z" fill="#FFC41F"/>
<path d="M544 13.5298L532.5 2.02979V13.5298H544Z" fill="#FFC41F"/>
<path d="M502 128H478L490 140H514L502 128Z" fill="#FF8800"/>
<path d="M534 128L510 128L510 25C510 22.7909 508.209 21 506 21V21C503.791 21 502 22.7909 502 25L502 128L478 128L478 -4.89568e-06L490 -3.8466e-06L502 12L502 6C502 2.68629 504.686 -2.56269e-06 508 -2.27299e-06L528 -5.24537e-07C531.314 -2.34843e-07 534 2.68629 534 6L534 128Z" fill="#FFEEBE"/>
</g>
<g filter="url(#filter9_d_652_6403)">
<path d="M126 21H138V140L126 128V21Z" fill="#5595F4"/>
<path d="M138 37.5L126 25.5V21H138V37.5Z" fill="#225EBE"/>
<path d="M158 128H134L146 140H170L158 128Z" fill="#225EBE"/>
<path d="M158 12H164C167.314 12 170 14.6863 170 18V140L158 128V12Z" fill="#5595F4"/>
<path d="M168 13.5298L156.5 2.02979V13.5298H168Z" fill="#5595F4"/>
<path d="M126 128H102L114 140H138L126 128Z" fill="#225EBE"/>
<path d="M158 128L134 128L134 25C134 22.7909 132.209 21 130 21V21C127.791 21 126 22.7909 126 25L126 128L102 128L102 -4.89568e-06L114 -3.8466e-06L126 12L126 6C126 2.68629 128.686 -2.56269e-06 132 -2.27299e-06L152 -5.24537e-07C155.314 -2.34843e-07 158 2.68629 158 6L158 128Z" fill="#CBE0FF"/>
</g>
<g filter="url(#filter10_d_652_6403)">
<mask id="mask4_652_6403" style="mask-type:alpha" maskUnits="userSpaceOnUse" x="580" y="0" width="68" height="140">
<path d="M580 0H648V30C648 33.3137 645.314 36 642 36H616V49H640V79C640 82.3137 637.314 85 634 85H616V140H580V0Z" fill="#FFE08B"/>
</mask>
<g mask="url(#mask4_652_6403)">
<path d="M604 24H616V49H604V24Z" fill="#5595F4"/>
<rect x="604" y="73" width="12" height="67" fill="#5595F4"/>
<path d="M628 49L640 61V85H623.5L628 49Z" fill="#5595F4"/>
<path d="M636 0L648 12V36H627L636 0Z" fill="#5595F4"/>
<path d="M631.5 19.5L604 24L616 36H648L631.5 19.5Z" fill="#225EBE"/>
<path d="M624.5 69.5L604 73L616 85H640L624.5 69.5Z" fill="#225EBE"/>
<path d="M604 128H580L592 140H616L604 128Z" fill="#225EBE"/>
<path fill-rule="evenodd" clip-rule="evenodd" d="M580 0H604H636V18C636 21.3137 633.314 24 630 24H604V49H628V67C628 70.3137 625.314 73 622 73H604V128H580V24V0Z" fill="#CBE0FF"/>
</g>
</g>
<g filter="url(#filter11_d_652_6403)">
<mask id="mask5_652_6403" style="mask-type:alpha" maskUnits="userSpaceOnUse" x="682" y="0" width="68" height="140">
<path fill-rule="evenodd" clip-rule="evenodd" d="M688 0C684.686 0 682 2.6863 682 6V134C682 137.314 684.686 140 688 140H744C747.314 140 750 137.314 750 134V6C750 2.68629 747.314 0 744 0L688 0Z" fill="#D9E0E7"/>
</mask>
<g mask="url(#mask5_652_6403)">
<path d="M750 18V140L738 128.185L726 115.5L738 83.3846V45.7231V12H738.5L744 12C747.314 12 750 14.6863 750 18Z" fill="#FF6C78"/>
<path d="M714 108V13.1552V9.10345L706 1V108H714Z" fill="#FF6C78"/>
<path fill-rule="evenodd" clip-rule="evenodd" d="M712.5 119L726 116L738 128L750 140H700C698.478 140 697.088 139.433 696.03 138.499L696.03 138.5L696.021 138.491C695.84 138.331 695.669 138.16 695.509 137.979L684 126.47L696.03 126.47V128L720.104 128C717.63 128 715.409 126.481 714.512 124.175L712.5 119Z" fill="#FF4756"/>
<path d="M748.5 14.0298L736.5 2.02979V14.0298H748.5Z" fill="#FF6C78"/>
</g>
<path d="M718 37.5L706 25.5V21H718V37.5Z" fill="#FF4756"/>
<path fill-rule="evenodd" clip-rule="evenodd" d="M688 0C684.686 0 682 2.68629 682 6V122C682 125.314 684.686 128 688 128H732C735.314 128 738 125.314 738 122V6C738 2.68629 735.314 0 732 0L688 0ZM714 25C714 22.7909 712.209 21 710 21V21C707.791 21 706 22.7909 706 25V103C706 105.209 707.791 107 710 107V107C712.209 107 714 105.209 714 103V25Z" fill="#FFC1C6"/>
</g>
<defs>
<filter id="filter0_d_652_6403" x="1082" y="0" width="72" height="152" filterUnits="userSpaceOnUse" color-interpolation-filters="sRGB">
<feFlood flood-opacity="0" result="BackgroundImageFix"/>
<feColorMatrix in="SourceAlpha" type="matrix" values="0 0 0 0 0 0 0 0 0 0 0 0 0 0 0 0 0 0 127 0" result="hardAlpha"/>
<feOffset dx="12" dy="12"/>
<feComposite in2="hardAlpha" operator="out"/>
<feColorMatrix type="matrix" values="0 0 0 0 0.176471 0 0 0 0 0.180392 0 0 0 0 0.207843 0 0 0 0.15 0"/>
<feBlend mode="normal" in2="BackgroundImageFix" result="effect1_dropShadow_652_6403"/>
<feBlend mode="normal" in="SourceGraphic" in2="effect1_dropShadow_652_6403" result="shape"/>
</filter>
<filter id="filter1_d_652_6403" x="988" y="0" width="72" height="152" filterUnits="userSpaceOnUse" color-interpolation-filters="sRGB">
<feFlood flood-opacity="0" result="BackgroundImageFix"/>
<feColorMatrix in="SourceAlpha" type="matrix" values="0 0 0 0 0 0 0 0 0 0 0 0 0 0 0 0 0 0 127 0" result="hardAlpha"/>
<feOffset dx="12" dy="12"/>
<feComposite in2="hardAlpha" operator="out"/>
<feColorMatrix type="matrix" values="0 0 0 0 0.176471 0 0 0 0 0.180392 0 0 0 0 0.207843 0 0 0 0.15 0"/>
<feBlend mode="normal" in2="BackgroundImageFix" result="effect1_dropShadow_652_6403"/>
<feBlend mode="normal" in="SourceGraphic" in2="effect1_dropShadow_652_6403" result="shape"/>
</filter>
<filter id="filter2_d_652_6403" x="886" y="0" width="80" height="152" filterUnits="userSpaceOnUse" color-interpolation-filters="sRGB">
<feFlood flood-opacity="0" result="BackgroundImageFix"/>
<feColorMatrix in="SourceAlpha" type="matrix" values="0 0 0 0 0 0 0 0 0 0 0 0 0 0 0 0 0 0 127 0" result="hardAlpha"/>
<feOffset dx="12" dy="12"/>
<feComposite in2="hardAlpha" operator="out"/>
<feColorMatrix type="matrix" values="0 0 0 0 0.176471 0 0 0 0 0.180392 0 0 0 0 0.207843 0 0 0 0.15 0"/>
<feBlend mode="normal" in2="BackgroundImageFix" result="effect1_dropShadow_652_6403"/>
<feBlend mode="normal" in="SourceGraphic" in2="effect1_dropShadow_652_6403" result="shape"/>
</filter>
<filter id="filter3_d_652_6403" x="784" y="0" width="80" height="152" filterUnits="userSpaceOnUse" color-interpolation-filters="sRGB">
<feFlood flood-opacity="0" result="BackgroundImageFix"/>
<feColorMatrix in="SourceAlpha" type="matrix" values="0 0 0 0 0 0 0 0 0 0 0 0 0 0 0 0 0 0 127 0" result="hardAlpha"/>
<feOffset dx="12" dy="12"/>
<feComposite in2="hardAlpha" operator="out"/>
<feColorMatrix type="matrix" values="0 0 0 0 0.176471 0 0 0 0 0.180392 0 0 0 0 0.207843 0 0 0 0.15 0"/>
<feBlend mode="normal" in2="BackgroundImageFix" result="effect1_dropShadow_652_6403"/>
<feBlend mode="normal" in="SourceGraphic" in2="effect1_dropShadow_652_6403" result="shape"/>
</filter>
<filter id="filter4_d_652_6403" x="0" y="0" width="80" height="152" filterUnits="userSpaceOnUse" color-interpolation-filters="sRGB">
<feFlood flood-opacity="0" result="BackgroundImageFix"/>
<feColorMatrix in="SourceAlpha" type="matrix" values="0 0 0 0 0 0 0 0 0 0 0 0 0 0 0 0 0 0 127 0" result="hardAlpha"/>
<feOffset dx="12" dy="12"/>
<feComposite in2="hardAlpha" operator="out"/>
<feColorMatrix type="matrix" values="0 0 0 0 0.176471 0 0 0 0 0.180392 0 0 0 0 0.207843 0 0 0 0.15 0"/>
<feBlend mode="normal" in2="BackgroundImageFix" result="effect1_dropShadow_652_6403"/>
<feBlend mode="normal" in="SourceGraphic" in2="effect1_dropShadow_652_6403" result="shape"/>
</filter>
<filter id="filter5_d_652_6403" x="204" y="0" width="48" height="152" filterUnits="userSpaceOnUse" color-interpolation-filters="sRGB">
<feFlood flood-opacity="0" result="BackgroundImageFix"/>
<feColorMatrix in="SourceAlpha" type="matrix" values="0 0 0 0 0 0 0 0 0 0 0 0 0 0 0 0 0 0 127 0" result="hardAlpha"/>
<feOffset dx="12" dy="12"/>
<feComposite in2="hardAlpha" operator="out"/>
<feColorMatrix type="matrix" values="0 0 0 0 0.176471 0 0 0 0 0.180392 0 0 0 0 0.207843 0 0 0 0.15 0"/>
<feBlend mode="normal" in2="BackgroundImageFix" result="effect1_dropShadow_652_6403"/>
<feBlend mode="normal" in="SourceGraphic" in2="effect1_dropShadow_652_6403" result="shape"/>
</filter>
<filter id="filter6_d_652_6403" x="274" y="0" width="80" height="152" filterUnits="userSpaceOnUse" color-interpolation-filters="sRGB">
<feFlood flood-opacity="0" result="BackgroundImageFix"/>
<feColorMatrix in="SourceAlpha" type="matrix" values="0 0 0 0 0 0 0 0 0 0 0 0 0 0 0 0 0 0 127 0" result="hardAlpha"/>
<feOffset dx="12" dy="12"/>
<feComposite in2="hardAlpha" operator="out"/>
<feColorMatrix type="matrix" values="0 0 0 0 0.176471 0 0 0 0 0.180392 0 0 0 0 0.207843 0 0 0 0.15 0"/>
<feBlend mode="normal" in2="BackgroundImageFix" result="effect1_dropShadow_652_6403"/>
<feBlend mode="normal" in="SourceGraphic" in2="effect1_dropShadow_652_6403" result="shape"/>
</filter>
<filter id="filter7_d_652_6403" x="376" y="0" width="80" height="152" filterUnits="userSpaceOnUse" color-interpolation-filters="sRGB">
<feFlood flood-opacity="0" result="BackgroundImageFix"/>
<feColorMatrix in="SourceAlpha" type="matrix" values="0 0 0 0 0 0 0 0 0 0 0 0 0 0 0 0 0 0 127 0" result="hardAlpha"/>
<feOffset dx="12" dy="12"/>
<feComposite in2="hardAlpha" operator="out"/>
<feColorMatrix type="matrix" values="0 0 0 0 0.176471 0 0 0 0 0.180392 0 0 0 0 0.207843 0 0 0 0.15 0"/>
<feBlend mode="normal" in2="BackgroundImageFix" result="effect1_dropShadow_652_6403"/>
<feBlend mode="normal" in="SourceGraphic" in2="effect1_dropShadow_652_6403" result="shape"/>
</filter>
<filter id="filter8_d_652_6403" x="478" y="0" width="80" height="152" filterUnits="userSpaceOnUse" color-interpolation-filters="sRGB">
<feFlood flood-opacity="0" result="BackgroundImageFix"/>
<feColorMatrix in="SourceAlpha" type="matrix" values="0 0 0 0 0 0 0 0 0 0 0 0 0 0 0 0 0 0 127 0" result="hardAlpha"/>
<feOffset dx="12" dy="12"/>
<feComposite in2="hardAlpha" operator="out"/>
<feColorMatrix type="matrix" values="0 0 0 0 0.176471 0 0 0 0 0.180392 0 0 0 0 0.207843 0 0 0 0.15 0"/>
<feBlend mode="normal" in2="BackgroundImageFix" result="effect1_dropShadow_652_6403"/>
<feBlend mode="normal" in="SourceGraphic" in2="effect1_dropShadow_652_6403" result="shape"/>
</filter>
<filter id="filter9_d_652_6403" x="102" y="0" width="80" height="152" filterUnits="userSpaceOnUse" color-interpolation-filters="sRGB">
<feFlood flood-opacity="0" result="BackgroundImageFix"/>
<feColorMatrix in="SourceAlpha" type="matrix" values="0 0 0 0 0 0 0 0 0 0 0 0 0 0 0 0 0 0 127 0" result="hardAlpha"/>
<feOffset dx="12" dy="12"/>
<feComposite in2="hardAlpha" operator="out"/>
<feColorMatrix type="matrix" values="0 0 0 0 0.176471 0 0 0 0 0.180392 0 0 0 0 0.207843 0 0 0 0.15 0"/>
<feBlend mode="normal" in2="BackgroundImageFix" result="effect1_dropShadow_652_6403"/>
<feBlend mode="normal" in="SourceGraphic" in2="effect1_dropShadow_652_6403" result="shape"/>
</filter>
<filter id="filter10_d_652_6403" x="580" y="0" width="80" height="152" filterUnits="userSpaceOnUse" color-interpolation-filters="sRGB">
<feFlood flood-opacity="0" result="BackgroundImageFix"/>
<feColorMatrix in="SourceAlpha" type="matrix" values="0 0 0 0 0 0 0 0 0 0 0 0 0 0 0 0 0 0 127 0" result="hardAlpha"/>
<feOffset dx="12" dy="12"/>
<feComposite in2="hardAlpha" operator="out"/>
<feColorMatrix type="matrix" values="0 0 0 0 0.176471 0 0 0 0 0.180392 0 0 0 0 0.207843 0 0 0 0.15 0"/>
<feBlend mode="normal" in2="BackgroundImageFix" result="effect1_dropShadow_652_6403"/>
<feBlend mode="normal" in="SourceGraphic" in2="effect1_dropShadow_652_6403" result="shape"/>
</filter>
<filter id="filter11_d_652_6403" x="682" y="0" width="80" height="152" filterUnits="userSpaceOnUse" color-interpolation-filters="sRGB">
<feFlood flood-opacity="0" result="BackgroundImageFix"/>
<feColorMatrix in="SourceAlpha" type="matrix" values="0 0 0 0 0 0 0 0 0 0 0 0 0 0 0 0 0 0 127 0" result="hardAlpha"/>
<feOffset dx="12" dy="12"/>
<feComposite in2="hardAlpha" operator="out"/>
<feColorMatrix type="matrix" values="0 0 0 0 0.176471 0 0 0 0 0.180392 0 0 0 0 0.207843 0 0 0 0.15 0"/>
<feBlend mode="normal" in2="BackgroundImageFix" result="effect1_dropShadow_652_6403"/>
<feBlend mode="normal" in="SourceGraphic" in2="effect1_dropShadow_652_6403" result="shape"/>
</filter>
</defs>
</svg>
