<svg width="100%" height="100%" viewBox="0 0 14 14" fill="none" xmlns="http://www.w3.org/2000/svg">
<path fill-rule="evenodd" clip-rule="evenodd" d="M6 10C8.20914 10 10 8.20914 10 6C10 3.79086 8.20914 2 6 2C3.79086 2 2 3.79086 2 6C2 8.20914 3.79086 10 6 10ZM6 11C8.76142 11 11 8.76142 11 6C11 3.23858 8.76142 1 6 1C3.23858 1 1 3.23858 1 6C1 8.76142 3.23858 11 6 11Z" fill="currentColor"/>
<path d="M9.30008 8.94652C9.49534 8.75126 9.81192 8.75126 10.0072 8.94652L13.0793 12.0186C13.2745 12.2139 13.2745 12.5304 13.0793 12.7257C12.884 12.921 12.5674 12.921 12.3722 12.7257L9.30008 9.65362C9.10482 9.45836 9.10482 9.14178 9.30008 8.94652Z" fill="currentColor"/>
<path d="M3.50032 6C3.224 6 2.99575 5.77447 3.04162 5.50199C3.09728 5.1714 3.20815 4.85128 3.37072 4.5554C3.61392 4.11274 3.96495 3.73866 4.39125 3.46782C4.81756 3.19698 5.30534 3.03815 5.80938 3.00606C6.1463 2.98461 6.4832 3.02025 6.80611 3.11033C7.07227 3.18458 7.17945 3.48702 7.06205 3.73716C6.94465 3.9873 6.64623 4.08789 6.37481 4.03609C6.21016 4.00466 6.04157 3.99395 5.87296 4.00468C5.53704 4.02607 5.21196 4.13192 4.92785 4.31242C4.64374 4.49292 4.40979 4.74223 4.24771 5.03724C4.16636 5.18531 4.10443 5.34248 4.06292 5.50488C3.99449 5.77259 3.77664 6 3.50032 6Z" fill="currentColor"/>
</svg>
