<svg width="100%" height="100%" viewBox="0 0 14 14" fill="none" xmlns="http://www.w3.org/2000/svg">
<path d="M10.8136 7.46875C11.0724 7.46875 11.2823 7.25888 11.2823 7C11.2823 6.74111 11.0724 6.53125 10.8136 6.53125L4.88018 6.53125C4.65745 6.53125 4.54591 6.26196 4.7034 6.10447L6.65019 4.15768C6.83107 3.9768 6.83011 3.68325 6.64806 3.50356C6.46768 3.32553 6.17742 3.32648 5.99821 3.50569L2.85705 6.64684C2.66195 6.84195 2.66177 7.15823 2.85666 7.35355L5.99013 10.494C6.17305 10.6773 6.4703 10.6766 6.65224 10.4922C6.83259 10.3096 6.83141 10.0155 6.6496 9.83424L4.70503 7.8958C4.54715 7.73843 4.65861 7.46875 4.88153 7.46875L10.8136 7.46875Z" fill="currentColor"/>
</svg>
