<svg width="699" height="209" viewBox="0 0 699 209" fill="none" xmlns="http://www.w3.org/2000/svg">
<path d="M513.739 98.2722L513.512 97.4211L513.986 96.6789C515.01 95.0779 515.972 93.5428 516.897 92.068C522.215 83.5845 526.283 77.0971 533.487 71.5485C541.935 65.0431 554.578 59.8768 578.397 53.5128C588.013 50.9434 597.654 48.0119 607.008 45.1673C609.189 44.504 611.355 43.8454 613.501 43.1973C624.821 39.7786 635.609 36.6469 645.14 34.7022C654.623 32.7671 663.111 31.9502 669.745 33.3471C673.095 34.0525 676.056 35.339 678.43 37.404C680.818 39.4818 682.501 42.2519 683.431 45.7322C687.869 62.3425 680.72 77.0214 666.759 88.9568C652.84 100.857 631.926 110.273 607.979 116.672C607.147 116.894 606.115 117.556 604.894 118.803C603.697 120.025 602.464 121.659 601.202 123.564C599.522 126.104 597.907 128.941 596.313 131.741C595.485 133.195 594.663 134.64 593.84 136.028C592.813 137.759 590.951 138.184 589.446 137.792C587.995 137.414 586.653 136.252 586.229 134.544C585.082 129.934 582.399 126.821 579.493 124.857C576.53 122.855 573.447 122.121 571.707 122.177C555.579 122.696 542.506 121.751 532.775 118.201C522.897 114.596 516.413 108.277 513.739 98.2722Z" fill="#27AE60" stroke="#E8F8EF" stroke-width="4"/>
<path d="M218 107.854V106.973L217.35 106.378C215.631 104.805 214.007 103.294 212.448 101.843C203.492 93.5055 196.708 87.1904 186.532 82.9457C174.597 77.9673 158.12 75.854 128 75.854C115.829 75.854 103.515 75.4337 91.5752 75.0262C88.7919 74.9312 86.029 74.8368 83.2929 74.7487C68.8505 74.2835 55.1466 73.9901 43.3058 74.699C31.513 75.405 21.3114 77.1148 14.0062 80.813C10.3233 82.6775 7.29973 85.0849 5.20132 88.1937C3.09211 91.3185 2 95.0308 2 99.354C2 120.133 14.9117 135.08 35.0622 144.721C55.163 154.338 82.7475 158.854 113 158.854C114.219 158.854 115.803 159.399 117.762 160.592C119.688 161.765 121.782 163.441 123.977 165.42C126.637 167.818 129.258 170.477 131.838 173.093C133.606 174.887 135.355 176.661 137.084 178.317C138.528 179.701 140.433 179.632 141.782 178.841C143.087 178.076 144.049 176.562 143.924 174.777C143.478 168.45 145.665 163.531 148.583 160.026C151.551 156.461 155.2 154.45 157.454 153.925C176.645 149.453 191.71 144.228 202.003 137.02C212.426 129.72 218 120.343 218 107.854Z" fill="#9EC5FF" stroke="#E8F8EF" stroke-width="4"/>
<path d="M510.739 151.547L510.512 150.696L510.986 149.953C512.01 148.352 512.972 146.817 513.897 145.342C519.215 136.859 523.283 130.372 530.487 124.823C538.935 118.318 551.578 113.151 575.397 106.787C585.013 104.218 594.654 101.286 604.008 98.4417C606.189 97.7784 608.355 97.1199 610.501 96.4717C621.821 93.053 632.609 89.9213 642.14 87.9766C651.623 86.0415 660.111 85.2246 666.745 86.6215C670.095 87.3269 673.056 88.6134 675.43 90.6784C677.818 92.7562 679.501 95.5263 680.431 99.0066C684.869 115.617 677.72 130.296 663.759 142.231C649.84 154.131 628.926 163.548 604.979 169.946C604.147 170.168 603.115 170.831 601.894 172.077C600.697 173.3 599.464 174.933 598.202 176.839C596.522 179.379 594.907 182.215 593.313 185.015C592.485 186.47 591.663 187.914 590.84 189.302C589.813 191.034 587.951 191.459 586.446 191.067C584.995 190.689 583.653 189.526 583.229 187.819C582.082 183.208 579.399 180.095 576.493 178.131C573.53 176.129 570.447 175.396 568.707 175.452C552.579 175.971 539.506 175.025 529.775 171.475C519.897 167.871 513.413 161.551 510.739 151.547Z" fill="#9EC5FF" stroke="#E8F8EF" stroke-width="4"/>
<path d="M438 114.854V113.973L437.35 113.378C435.631 111.805 434.007 110.294 432.448 108.843C423.492 100.506 416.708 94.1904 406.532 89.9457C394.597 84.9673 378.12 82.854 348 82.854C335.829 82.854 323.515 82.4337 311.575 82.0262C308.792 81.9312 306.029 81.8368 303.293 81.7487C288.85 81.2835 275.147 80.9901 263.306 81.699C251.513 82.405 241.311 84.1148 234.006 87.813C230.323 89.6775 227.3 92.0849 225.201 95.1937C223.092 98.3185 222 102.031 222 106.354C222 127.133 234.912 142.08 255.062 151.721C275.163 161.338 302.747 165.854 333 165.854C334.219 165.854 335.803 166.399 337.762 167.592C339.688 168.765 341.782 170.441 343.977 172.42C346.637 174.818 349.258 177.477 351.838 180.093C353.606 181.887 355.355 183.661 357.084 185.317C358.528 186.701 360.433 186.632 361.782 185.841C363.087 185.076 364.049 183.562 363.924 181.777C363.478 175.45 365.665 170.531 368.583 167.026C371.551 163.461 375.2 161.45 377.454 160.925C396.645 156.453 411.71 151.228 422.003 144.02C432.426 136.72 438 127.343 438 114.854Z" fill="#52D188" stroke="#E8F8EF" stroke-width="4"/>
<path d="M103.104 122.162C101.638 122.298 100.181 122.435 98.7333 122.571C90.5478 123.341 82.6844 124.081 75.4432 124.439C66.929 124.861 59.1344 124.765 52.5469 123.533C45.9578 122.3 40.3665 119.891 36.507 115.512C32.6273 111.11 30.7502 105.006 30.9998 96.9211C31.0021 87.3319 32.0658 79.945 34.7049 74.0112C37.3769 68.0035 41.5872 63.6532 47.5444 60.012C53.4378 56.4097 61.0962 53.4693 70.7197 50.2647C75.0646 48.8179 79.8451 47.3063 85.0761 45.6524C85.655 45.4693 86.2395 45.2845 86.8295 45.0979C92.7561 43.223 99.2549 41.1572 106.379 38.7844C117.926 34.9386 129.476 30.6487 140.676 26.4889C143.286 25.5193 145.878 24.5568 148.446 23.6086C162.001 18.6035 174.91 13.9947 186.369 10.9257C197.78 7.86907 207.999 6.26763 216.099 7.46796C220.182 8.0731 223.812 9.40175 226.785 11.6881C229.773 13.9863 231.983 17.1634 233.349 21.265C239.915 40.9797 232.388 59.2402 216.316 74.7546C200.284 90.2308 175.54 103.232 146.838 112.792C145.682 113.177 144.351 114.195 142.869 115.945C141.412 117.667 139.956 119.919 138.498 122.49C136.732 125.606 135.085 128.957 133.465 132.254C132.354 134.515 131.255 136.75 130.138 138.868C129.205 140.638 127.376 141.174 125.846 140.849C124.367 140.536 122.975 139.404 122.53 137.67C120.954 131.527 117.325 127.551 113.448 125.148C109.506 122.704 105.409 121.948 103.104 122.162Z" fill="#52D188" stroke="#E8F8EF" stroke-width="4"/>
<path d="M419 71.5796V70.6986L418.35 70.104C416.631 68.5311 415.007 67.0191 413.448 65.5684C404.492 57.2311 397.708 50.9159 387.532 46.6713C375.597 41.6929 359.12 39.5796 329 39.5796C316.829 39.5796 304.515 39.1593 292.575 38.7517C289.792 38.6567 287.029 38.5624 284.293 38.4743C269.85 38.0091 256.147 37.7156 244.306 38.4245C232.513 39.1306 222.311 40.8404 215.006 44.5386C211.323 46.4031 208.3 48.8105 206.201 51.9193C204.092 55.0441 203 58.7564 203 63.0796C203 83.859 215.912 98.8052 236.062 108.446C256.163 118.063 283.747 122.58 314 122.58C315.219 122.58 316.803 123.125 318.762 124.318C320.688 125.49 322.782 127.167 324.977 129.146C327.637 131.544 330.258 134.202 332.838 136.819C334.606 138.612 336.355 140.386 338.084 142.043C339.528 143.427 341.433 143.358 342.782 142.566C344.087 141.801 345.049 140.288 344.924 138.502C344.478 132.176 346.665 127.257 349.583 123.752C352.551 120.187 356.2 118.175 358.454 117.65C377.645 113.178 392.71 107.954 403.003 100.745C413.426 93.4459 419 84.0685 419 71.5796Z" fill="#FF8800" stroke="#E8F8EF" stroke-width="4"/>
<path d="M593 55.5796V55.2561L592.898 54.9491C590.781 48.5764 587.454 43.973 582.58 40.7687C577.768 37.605 571.619 35.9197 564.06 35.0239C556.496 34.1274 547.326 34.0026 536.364 34.0951C532.417 34.1284 528.24 34.1898 523.813 34.255C515.886 34.3716 507.155 34.5 497.5 34.5C482.559 34.5 467.713 33.1858 453.8 31.6987C450.178 31.3114 446.612 30.9117 443.124 30.5205C433.258 29.4144 424.004 28.3768 415.795 27.8848C404.737 27.222 395.177 27.5124 388.328 30.1643C384.851 31.5105 381.974 33.5012 379.981 36.3652C377.986 39.232 377 42.7983 377 47.0796C377 67.8591 389.912 82.8053 410.062 92.4463C430.163 102.064 457.747 106.58 488 106.58C489.219 106.58 490.803 107.125 492.762 108.318C494.688 109.49 496.782 111.167 498.977 113.146C501.637 115.544 504.258 118.203 506.838 120.819C508.606 122.613 510.355 124.386 512.084 126.043C513.528 127.427 515.433 127.358 516.782 126.566C518.087 125.801 519.049 124.288 518.924 122.503C518.478 116.176 520.665 111.257 523.583 107.752C526.551 104.187 530.2 102.176 532.454 101.65C533.197 101.477 533.933 101.306 534.664 101.136C552.62 96.9576 566.991 93.6138 576.894 87.6004C582.127 84.4229 586.2 80.4591 588.939 75.1861C591.669 69.9326 593 63.5271 593 55.5796Z" fill="#FF6C78" stroke="#E8F8EF" stroke-width="4"/>
<path d="M418.409 103.661C410.787 113.137 404.922 120.976 401.416 127.388C397.979 133.674 396.426 139.268 398.679 143.815C400.914 148.327 406.436 150.856 414.406 152.363C422.529 153.898 433.933 154.5 449 154.5C450.881 154.5 451.871 154.722 452.5 155.085C453.057 155.406 453.596 155.992 454.154 157.426C454.729 158.903 455.226 161.015 455.839 164.116C456.075 165.307 456.331 166.664 456.616 168.174C457.048 170.458 457.545 173.091 458.134 176.018C458.83 179.479 463.201 180.292 465.282 177.718C473.209 167.913 482.251 160.781 490.036 155.934C497.857 151.064 504.297 148.567 506.954 147.948C520.292 144.84 526.69 143.618 532.286 142.549C541.946 140.704 549.217 139.315 585.68 129.467C591.436 127.913 596.835 124.487 600.08 119.237C603.981 112.927 606.186 107.256 606.107 102.261C606.026 97.0743 603.494 92.9267 598.714 89.8241C594.046 86.7948 587.197 84.7198 578.211 83.3824C569.187 82.0393 557.817 81.4145 543.967 81.4145C537.559 81.4145 531.323 81.3773 525.272 81.3412C503.009 81.2083 483.255 81.0904 466.64 82.8968C445.507 85.1945 428.874 90.6503 418.409 103.661Z" fill="#FFC41F" stroke="#E8F8EF" stroke-width="4"/>
<path d="M313 89.854V89.7592L312.991 89.6649C312.217 81.5203 310.013 75.251 305.967 70.5407C301.919 65.8287 296.227 62.9088 288.938 61.0723C281.672 59.2415 272.658 58.448 261.788 58.1017C252.94 57.8197 242.764 57.8326 231.192 57.8472C228.535 57.8506 225.805 57.854 223 57.854C210.829 57.854 198.515 57.4337 186.575 57.0262C183.792 56.9312 181.029 56.8368 178.293 56.7487C163.85 56.2835 150.147 55.9901 138.306 56.699C126.513 57.405 116.311 59.1148 109.006 62.813C105.323 64.6775 102.3 67.0849 100.201 70.1937C98.0921 73.3185 97 77.0308 97 81.354C97 102.133 109.912 117.08 130.062 126.721C150.163 136.338 177.747 140.854 208 140.854C209.219 140.854 210.803 141.399 212.762 142.592C214.688 143.765 216.782 145.441 218.977 147.42C221.637 149.818 224.258 152.477 226.838 155.093C228.606 156.887 230.355 158.661 232.084 160.317C233.528 161.701 235.433 161.632 236.782 160.841C238.087 160.076 239.049 158.562 238.924 156.777C238.478 150.45 240.665 145.531 243.583 142.026C246.551 138.461 250.2 136.45 252.454 135.925C271.645 131.453 286.71 126.228 297.003 119.02C307.426 111.72 313 102.343 313 89.854Z" fill="#FF9BA3" stroke="#E8F8EF" stroke-width="4"/>
<path d="M334 87.3542C334 97.6037 336.72 106.191 341.854 113.263C346.973 120.314 354.399 125.73 363.614 129.818C381.987 137.968 407.836 141 438 141C438.538 141 438.736 141.12 438.795 141.163C438.853 141.206 438.975 141.32 439.09 141.679C439.359 142.521 439.358 143.936 439.134 146.034C439.042 146.887 438.924 147.786 438.798 148.741C438.775 148.91 438.753 149.08 438.73 149.252C438.581 150.386 438.429 151.583 438.319 152.789C438.101 155.179 438.032 157.744 438.536 160.106C438.717 160.957 439.178 161.837 440.085 162.349C440.978 162.852 441.922 162.783 442.627 162.545C443.972 162.092 445.067 160.873 445.539 159.465C446.532 156.51 449.208 153.569 453.135 150.759C457.017 147.982 461.876 145.506 466.837 143.396C476.753 139.178 486.781 136.548 489.454 135.925C508.793 131.418 532.462 121.517 547.657 109.539C555.222 103.575 560.978 96.869 562.768 89.8003C563.676 86.2146 563.554 82.5605 562.154 78.9561C560.768 75.3847 558.173 71.9789 554.315 68.7666C548.193 63.1765 542.719 60.9008 536.93 60.9354C531.303 60.9691 525.632 63.2055 519.234 65.9096C518.567 66.1912 517.89 66.4796 517.199 66.7734C504.544 72.159 487.636 79.3542 459.5 79.3542C438.965 79.3542 418.192 76.3529 399.54 73.6581C390.964 72.4189 382.836 71.2446 375.386 70.4566C363.721 69.2229 353.56 68.9249 346.26 71.1029C342.56 72.2067 339.446 73.9875 337.269 76.7374C335.081 79.5023 334 83.0426 334 87.3542Z" fill="#C6A8EC" stroke="#E8F8EF" stroke-width="4"/>
</svg>
