<svg width="960" height="352" viewBox="0 0 960 352" fill="none" xmlns="http://www.w3.org/2000/svg">
<g clip-path="url(#clip0_2935_3043)">
<rect width="960" height="352" transform="matrix(-1 0 0 1 960 0)" fill="#18181C"/>
<rect width="960" height="352" fill="url(#paint0_linear_2935_3043)" fill-opacity="0.65"/>
<circle cx="36.5" cy="35.5" r="0.5" fill="white"/>
<circle cx="119.5" cy="129.5" r="0.5" fill="white"/>
<circle cx="196.5" cy="53.5" r="0.5" fill="white"/>
<circle cx="101.5" cy="77.5" r="0.5" fill="white"/>
<circle cx="313.5" cy="150.5" r="0.5" fill="white"/>
<circle cx="394.5" cy="42.5" r="0.5" fill="white"/>
<circle cx="172.5" cy="148.5" r="0.5" fill="white"/>
<circle cx="114.617" cy="192.66" r="0.5" transform="rotate(65.9496 114.617 192.66)" fill="white"/>
<circle cx="62.5733" cy="287.066" r="0.5" transform="rotate(65.9496 62.5733 287.066)" fill="white"/>
<circle cx="163.386" cy="346.106" r="0.5" transform="rotate(65.9496 163.386 346.106)" fill="white"/>
<circle cx="102.753" cy="269.134" r="0.5" transform="rotate(65.9496 102.753 269.134)" fill="white"/>
<circle cx="587.569" cy="90.6676" r="0.5" transform="rotate(64.2467 587.569 90.6676)" fill="white"/>
<circle opacity="0.5" cx="566.569" cy="81.6676" r="0.5" transform="rotate(64.2467 566.569 81.6676)" fill="white"/>
<circle opacity="0.5" cx="289.667" cy="74.6676" r="0.5" transform="rotate(64.2467 289.667 74.6676)" fill="white"/>
<circle opacity="0.5" cx="321.667" cy="33.6676" r="0.5" transform="rotate(64.2467 321.667 33.6676)" fill="white"/>
<circle opacity="0.5" cx="455.667" cy="110.668" r="0.5" transform="rotate(64.2467 455.667 110.668)" fill="white"/>
<circle opacity="0.5" cx="154.667" cy="52.6676" r="0.5" transform="rotate(64.2467 154.667 52.6676)" fill="white"/>
<circle opacity="0.5" cx="35.6673" cy="121.668" r="0.5" transform="rotate(64.2467 35.6673 121.668)" fill="white"/>
<circle opacity="0.5" cx="68.6673" cy="170.668" r="0.5" transform="rotate(64.2467 68.6673 170.668)" fill="white"/>
<circle opacity="0.5" cx="389.667" cy="111.668" r="0.5" transform="rotate(64.2467 389.667 111.668)" fill="white"/>
<circle cx="617.569" cy="47.6676" r="0.5" transform="rotate(64.2467 617.569 47.6676)" fill="white"/>
<circle cx="503.569" cy="214.668" r="0.5" transform="rotate(64.2467 503.569 214.668)" fill="white"/>
<circle cx="636.65" cy="236.596" r="0.5" transform="rotate(64.2467 636.65 236.596)" fill="white"/>
<circle cx="537.569" cy="123.668" r="0.5" transform="rotate(64.2467 537.569 123.668)" fill="white"/>
<circle cx="540.658" cy="256.257" r="0.5" transform="rotate(64.2467 540.658 256.257)" fill="white"/>
<circle cx="440.114" cy="178.35" r="0.5" transform="rotate(130.196 440.114 178.35)" fill="white"/>
<circle cx="888.356" cy="78.5874" r="0.5" transform="rotate(94.8069 888.356 78.5874)" fill="white"/>
<circle cx="781.892" cy="187.048" r="0.5" transform="rotate(94.8069 781.892 187.048)" fill="white"/>
<circle cx="882.725" cy="276.813" r="0.5" transform="rotate(94.8069 882.725 276.813)" fill="white"/>
<circle cx="795.701" cy="46.711" r="0.5" transform="rotate(94.8069 795.701 46.711)" fill="white"/>
<circle cx="368.092" cy="217.456" r="0.5" transform="rotate(130.196 368.092 217.456)" fill="white"/>
<circle cx="676.5" cy="111.5" r="0.5" fill="white"/>
<circle cx="731.092" cy="178.456" r="0.5" transform="rotate(130.196 731.092 178.456)" fill="white"/>
<circle cx="358.719" cy="333.908" r="0.5" transform="rotate(130.196 358.719 333.908)" fill="white"/>
<circle cx="401.701" cy="245.853" r="0.5" transform="rotate(130.196 401.701 245.853)" fill="white"/>
<circle cx="301.644" cy="254.262" r="0.5" transform="rotate(130.196 301.644 254.262)" fill="white"/>
<circle cx="755.97" cy="310.5" r="0.5" fill="white"/>
<circle cx="882.583" cy="338.35" r="0.5" transform="rotate(130.196 882.583 338.35)" fill="white"/>
<rect x="960" y="352" width="960" height="353" transform="rotate(-180 960 352)" fill="url(#paint1_linear_2935_3043)" fill-opacity="0.65"/>
</g>
<defs>
<linearGradient id="paint0_linear_2935_3043" x1="480" y1="352" x2="480" y2="0" gradientUnits="userSpaceOnUse">
<stop stop-color="#225EBE"/>
<stop offset="1" stop-color="#0B3880" stop-opacity="0"/>
</linearGradient>
<linearGradient id="paint1_linear_2935_3043" x1="1588.84" y1="836.492" x2="1396.18" y2="352.265" gradientUnits="userSpaceOnUse">
<stop stop-color="#9A76C8"/>
<stop offset="1" stop-color="#0B3880" stop-opacity="0"/>
</linearGradient>
<clipPath id="clip0_2935_3043">
<rect width="960" height="352" fill="white" transform="matrix(-1 0 0 1 960 0)"/>
</clipPath>
</defs>
</svg>
