<svg width="960" height="320" viewBox="0 0 960 320" fill="none" xmlns="http://www.w3.org/2000/svg">
<rect width="960" height="320" transform="matrix(-1 0 0 1 960 0)" fill="#ECF2FA"/>
<path d="M21.5 63.9172C21.5 63.9172 86.5 25.9161 103 36.4161C119.5 46.9161 142.598 60.628 179.5 63.9172C230.071 68.4247 287.576 42.3447 338 36.4159C431.742 25.3938 425.112 66.0392 519.5 66.0002C613.499 65.9614 692.185 28.045 786 33.9172C831.667 36.7757 856.29 52.4796 902 50.4172C936.738 48.8498 909.778 67.8802 944.5 66.0001C958.733 65.2294 954.5 96.0001 954.5 96.0001H926.5L66 98.9172L21.5 63.9172Z" fill="#9EC5FF"/>
<path d="M0 47.0011C0 47.0011 20.5 39 37 49.5C53.5 60 76.5979 73.7119 113.5 77.0011C164.071 81.5087 189.576 52.93 240 47.0011C333.742 35.979 386.112 71.0401 480.5 71.0011C574.499 70.9624 626.185 41.1289 720 47.0011C765.667 49.8596 790.29 65.5636 836 63.5011C870.738 61.9338 888.778 48.8813 923.5 47.0011C937.733 46.2304 960 47.0011 960 47.0011V112.001H0V47.0011Z" fill="#5595F4"/>
<rect y="112" width="960" height="208" fill="url(#paint0_linear_2937_3043)"/>
<defs>
<linearGradient id="paint0_linear_2937_3043" x1="420.5" y1="112" x2="420.5" y2="320" gradientUnits="userSpaceOnUse">
<stop stop-color="#5595F4"/>
<stop offset="1" stop-color="#225EBE"/>
</linearGradient>
</defs>
</svg>
