<svg width="1176" height="411" viewBox="0 0 1176 411" fill="none" xmlns="http://www.w3.org/2000/svg">
<g opacity="0.9">
<rect x="40" y="11" width="18" height="46" fill="#FF8800"/>
<rect x="796" y="297" width="18" height="46" fill="#FF9BA3"/>
<rect x="494.211" width="18.0097" height="45.8428" transform="rotate(36.1327 494.211 0)" fill="#FFE08B"/>
<rect x="114.825" y="10.3909" width="48.5716" height="20.1927" transform="rotate(7.44615 114.825 10.3909)" fill="#C6A8EC"/>
<rect x="977.617" y="230" width="48.5716" height="20.1927" transform="rotate(7.44615 977.617 230)" fill="#C6A8EC"/>
<rect x="336" y="307" width="49" height="20" fill="#5595F4"/>
<rect x="427.034" y="136" width="71.7096" height="22.8867" transform="rotate(20.5506 427.034 136)" fill="#88F3B5"/>
<rect x="731.688" y="169" width="48.5716" height="20.1927" transform="rotate(13.4224 731.688 169)" fill="#734DA2"/>
<rect x="256" y="34" width="28" height="38" fill="#88F3B5"/>
<rect x="125.469" y="42.9771" width="21.039" height="38" transform="rotate(-36.3036 125.469 42.9771)" fill="#9A76C8"/>
<rect x="1141" y="130" width="28" height="38" fill="#52D188"/>
<path d="M420.891 70.2883L436.676 58.189L459.916 88.509L444.131 100.608L430.5 81.4998L420.891 70.2883Z" fill="#ECF2FA"/>
<rect x="1023" y="108.92" width="32.7449" height="38.2024" transform="rotate(-37.4703 1023 108.92)" fill="#FFC41F"/>
<rect y="171.92" width="32.7449" height="38.2024" transform="rotate(-37.4703 0 171.92)" fill="#FF4756"/>
<rect x="809.889" y="38.8735" width="22.8052" height="38.2024" transform="rotate(-37.4703 809.889 38.8735)" fill="#FF4756"/>
<rect x="509.277" y="330" width="17.4639" height="38.2024" transform="rotate(18.7466 509.277 330)" fill="#FFF7DF"/>
<rect x="125.9" y="170" width="20" height="46" transform="rotate(65.626 125.9 170)" fill="#ECF2FA"/>
<rect x="304.948" y="198.844" width="16.9182" height="55.5361" transform="rotate(-27.096 304.948 198.844)" fill="#FFEEBE"/>
<rect x="154.141" y="341.739" width="19.1012" height="66.0355" transform="rotate(17.3272 154.141 341.739)" fill="#FF6C78"/>
<rect x="870.667" y="176" width="19.1012" height="66.0355" transform="rotate(17.3272 870.667 176)" fill="#FF6C78"/>
<rect x="649.841" y="115.923" width="21.8299" height="55.6663" transform="rotate(-12.9146 649.841 115.923)" fill="#5595F4"/>
<rect x="348.907" y="72" width="21.8299" height="55.6663" transform="rotate(25.4338 348.907 72)" fill="#5595F4"/>
<rect x="645.718" y="21.1667" width="50.2088" height="13.0979" transform="rotate(6.15892 645.718 21.1667)" fill="#CBE0FF"/>
<rect x="583.943" y="67.4902" width="50.2088" height="13.0979" transform="rotate(100.138 583.943 67.4902)" fill="#FF9BA3"/>
<rect x="513.911" y="229.513" width="23" height="48" transform="rotate(20.0198 513.911 229.513)" fill="#FF9BA3"/>
<rect x="692.107" y="310.43" width="18.0097" height="38.2024" transform="rotate(-30.405 692.107 310.43)" fill="#9A76C8"/>
<rect x="242.024" y="285.518" width="24.5555" height="38" transform="rotate(30 242.024 285.518)" fill="#225EBE"/>
<rect x="880" y="262" width="33" height="38" fill="#C6A8EC"/>
<rect x="1005" y="357.088" width="27.2874" height="53.4833" transform="rotate(-10.746 1005 357.088)" fill="#5595F4"/>
<rect x="169.566" y="98" width="23.4425" height="45.8428" transform="rotate(8.2358 169.566 98)" fill="#FF6C78"/>
<rect x="928.566" y="57" width="23.4425" height="45.8428" transform="rotate(8.2358 928.566 57)" fill="#818286"/>
<rect x="1126" y="22.5977" width="23.4425" height="45.8428" transform="rotate(-48.6483 1126 22.5977)" fill="#C6FFDE"/>
<rect x="205.613" y="189.726" width="16.8503" height="32.5171" transform="rotate(-20.2551 205.613 189.726)" fill="#9EC5FF"/>
<rect x="1117" y="320.224" width="23.7556" height="45.8428" transform="rotate(-20.2551 1117 320.224)" fill="#E4EAF3"/>
</g>
</svg>
