<svg width="1024" height="512" viewBox="0 0 1024 512" fill="none" xmlns="http://www.w3.org/2000/svg">
<g clip-path="url(#clip0_3150_7112)">
<path d="M22.9355 63.9171C22.9355 63.9171 92.2689 25.9159 109.869 36.4159C127.469 46.9159 152.107 60.6279 191.469 63.9171C245.411 68.4246 306.75 42.3446 360.536 36.4158C460.527 25.3936 453.455 66.039 554.135 66.0001C654.401 65.9613 738.332 28.0448 838.402 33.9171C887.114 36.7756 913.378 52.4795 962.135 50.4171C999.189 48.8497 970.432 67.8801 1007.47 65.9999C1022.65 65.2292 1018.14 95.9999 1018.14 95.9999H988.269L70.4022 98.9171L22.9355 63.9171Z" fill="#27AE60"/>
<path d="M0.00195312 47.0011C0.00195312 47.0011 21.8686 39 39.4686 49.5C57.0686 60 81.7064 73.7119 121.069 77.0011C175.011 81.5087 202.216 52.93 256.002 47.0011C355.993 35.979 411.855 71.0401 512.535 71.0011C612.801 70.9624 667.932 41.1289 768.002 47.0011C816.714 49.8596 842.978 65.5636 891.735 63.5011C928.789 61.9338 948.032 48.8813 985.069 47.0011C1000.25 46.2304 1024 47.0011 1024 47.0011V112.001H0.00195312V47.0011Z" fill="#52D188"/>
<path d="M0.00195312 47.0011C0.00195312 47.0011 21.8686 39 39.4686 49.5C57.0686 60 81.7064 73.7119 121.069 77.0011C175.011 81.5087 202.216 52.93 256.002 47.0011C355.993 35.979 411.855 71.0401 512.535 71.0011C612.801 70.9624 667.932 41.1289 768.002 47.0011C816.714 49.8596 842.978 65.5636 891.735 63.5011C928.789 61.9338 948.032 48.8813 985.069 47.0011C1000.25 46.2304 1024 47.0011 1024 47.0011V112.001H0.00195312V47.0011Z" fill="#52D188"/>
<rect x="0.00195312" y="112" width="1024" height="400" fill="url(#paint0_linear_3150_7112)"/>
<path opacity="0.25" d="M-425.645 345.869C-425.645 345.869 -386.948 307.995 -351.266 352.464C-315.584 396.933 -265.898 454.817 -191.503 464.921C-89.5514 478.768 -46.3956 349.244 52.4687 316.931C236.264 256.86 349.982 405.677 538.005 394.124C725.254 382.619 820.229 244.386 1008.7 259.057C1100.44 266.198 1153.69 332.713 1244.2 318.077C1312.98 306.953 1345.43 247.026 1414.1 234.521C1442.24 229.394 1486.81 230.12 1486.81 230.12L1504.22 517.718L-408.238 633.467L-425.645 345.869Z" fill="#10733A"/>
</g>
<defs>
<linearGradient id="paint0_linear_3150_7112" x1="448.535" y1="112" x2="448.535" y2="512" gradientUnits="userSpaceOnUse">
<stop stop-color="#52D188"/>
<stop offset="1" stop-color="#00FF6C"/>
</linearGradient>
<clipPath id="clip0_3150_7112">
<rect width="1024" height="512" fill="white" transform="matrix(-1 0 0 1 1024 0)"/>
</clipPath>
</defs>
</svg>
