<svg width="1024" height="320" viewBox="0 0 1024 320" fill="none" xmlns="http://www.w3.org/2000/svg">
<g clip-path="url(#clip0_3146_7052)">
<path d="M21.9336 62.9171C21.9336 62.9171 91.2669 24.9159 108.867 35.4159C126.467 45.9159 151.105 59.6279 190.467 62.9171C244.409 67.4246 305.748 41.3446 359.534 35.4158C459.525 24.3936 452.453 65.039 553.134 65.0001C653.399 64.9613 737.33 27.0448 837.4 32.9171C886.112 35.7756 912.376 51.4795 961.134 49.4171C998.187 47.8497 969.43 66.8801 1006.47 64.9999C1021.65 64.2292 1017.13 94.9999 1017.13 94.9999H987.267L69.4003 97.9171L21.9336 62.9171Z" fill="#52D188"/>
<path d="M22.9336 63.9171C22.9336 63.9171 92.2669 25.9159 109.867 36.4159C127.467 46.9159 152.105 60.6279 191.467 63.9171C245.409 68.4246 306.748 42.3446 360.534 36.4158C460.525 25.3936 453.453 66.039 554.134 66.0001C654.399 65.9613 738.33 28.0448 838.4 33.9171C887.112 36.7756 913.376 52.4795 962.134 50.4171C999.187 48.8497 970.43 67.8801 1007.47 65.9999C1022.65 65.2292 1018.13 95.9999 1018.13 95.9999H988.267L70.4003 98.9171L22.9336 63.9171Z" fill="#27AE60"/>
<path d="M-3 46.0011C-3 46.0011 18.8667 38 36.4667 48.5C54.0667 59 78.7044 72.7119 118.067 76.0011C172.009 80.5087 199.214 51.93 253 46.0011C352.991 34.979 408.853 70.0401 509.533 70.0011C609.799 69.9624 664.93 40.1289 765 46.0011C813.712 48.8596 839.976 64.5636 888.733 62.5011C925.787 60.9338 945.03 47.8813 982.067 46.0011C997.249 45.2304 1021 46.0011 1021 46.0011V111.001H-3V46.0011Z" fill="#88F3B5"/>
<path d="M0 47.0011C0 47.0011 21.8667 39 39.4667 49.5C57.0667 60 81.7044 73.7119 121.067 77.0011C175.009 81.5087 202.214 52.93 256 47.0011C355.991 35.979 411.853 71.0401 512.533 71.0011C612.799 70.9624 667.93 41.1289 768 47.0011C816.712 49.8596 842.976 65.5636 891.733 63.5011C928.787 61.9338 948.03 48.8813 985.067 47.0011C1000.25 46.2304 1024 47.0011 1024 47.0011V112.001H0V47.0011Z" fill="#52D188"/>
<path d="M0 47.0011C0 47.0011 21.8667 39 39.4667 49.5C57.0667 60 81.7044 73.7119 121.067 77.0011C175.009 81.5087 202.214 52.93 256 47.0011C355.991 35.979 411.853 71.0401 512.533 71.0011C612.799 70.9624 667.93 41.1289 768 47.0011C816.712 49.8596 842.976 65.5636 891.733 63.5011C928.787 61.9338 948.03 48.8813 985.067 47.0011C1000.25 46.2304 1024 47.0011 1024 47.0011V112.001H0V47.0011Z" fill="#52D188"/>
<rect y="112" width="1024" height="208" fill="url(#paint0_linear_3146_7052)"/>
<path opacity="0.25" d="M0 254.917C0 254.917 21.8667 246.916 39.4667 257.416C57.0667 267.916 81.7044 281.628 121.067 284.917C175.009 289.425 202.214 260.846 256 254.917C355.991 243.895 411.853 278.956 512.533 278.917C612.799 278.878 667.93 249.045 768 254.917C816.712 257.776 842.976 273.48 891.733 271.417C928.787 269.85 948.03 256.797 985.067 254.917C1000.25 254.146 1024 254.917 1024 254.917V319.917H0V254.917Z" fill="#10733A"/>
</g>
<defs>
<linearGradient id="paint0_linear_3146_7052" x1="448.533" y1="112" x2="448.533" y2="320" gradientUnits="userSpaceOnUse">
<stop stop-color="#52D188"/>
<stop offset="1" stop-color="#00FF6C"/>
</linearGradient>
<clipPath id="clip0_3146_7052">
<rect width="1024" height="320" fill="white" transform="matrix(-1 0 0 1 1024 0)"/>
</clipPath>
</defs>
</svg>
