<svg width="432" height="244" viewBox="0 0 432 244" fill="none" xmlns="http://www.w3.org/2000/svg">
<g clip-path="url(#clip0_1558_1461)">
<rect width="432" height="244" rx="12" transform="matrix(-1 0 0 1 432 0)" fill="#2D2E35"/>
<rect width="56" height="16" rx="8" transform="matrix(-1 0 0 1 68 18)" fill="#515258"/>
<rect width="56" height="16" rx="8" transform="matrix(-1 0 0 1 140 18)" fill="#818286"/>
<rect width="32" height="16" rx="8" transform="matrix(-1 0 0 1 188 18)" fill="#18181C"/>
<rect width="24" height="16" rx="8" transform="matrix(-1 0 0 1 228 18)" fill="#FFE08B"/>
<rect width="56" height="16" rx="8" transform="matrix(-1 0 0 1 300 18)" fill="#41424B"/>
<rect width="56" height="16" rx="8" transform="matrix(-1 0 0 1 372 18)" fill="#818286"/>
<rect width="32" height="16" rx="8" transform="matrix(-1 0 0 1 420 18)" fill="#41424B"/>
<rect width="56" height="16" rx="8" transform="matrix(-1 0 0 1 32 50)" fill="#41424B"/>
<rect width="32" height="16" rx="8" transform="matrix(-1 0 0 1 80 50)" fill="#515258"/>
<rect width="56" height="16" rx="8" transform="matrix(-1 0 0 1 152 50)" fill="#41424B"/>
<rect width="24" height="16" rx="8" transform="matrix(-1 0 0 1 192 50)" fill="#27AE60"/>
<rect width="16" height="16" rx="8" transform="matrix(-1 0 0 1 224 50)" fill="#C6A8EC"/>
<rect width="24" height="16" rx="8" transform="matrix(-1 0 0 1 264 50)" fill="#52D188"/>
<rect width="56" height="16" rx="8" transform="matrix(-1 0 0 1 336 50)" fill="#41424B"/>
<rect width="32" height="16" rx="8" transform="matrix(-1 0 0 1 384 50)" fill="#18181C"/>
<rect width="56" height="16" rx="8" transform="matrix(-1 0 0 1 456 50)" fill="#41424B"/>
<rect width="32" height="16" rx="8" transform="matrix(-1 0 0 1 48 82)" fill="#818286"/>
<rect width="56" height="16" rx="8" transform="matrix(-1 0 0 1 120 82)" fill="#41424B"/>
<rect width="24" height="16" rx="8" transform="matrix(-1 0 0 1 160 82)" fill="#52D188"/>
<rect width="16" height="16" rx="8" transform="matrix(-1 0 0 1 192 82)" fill="#FF4756"/>
<rect width="16" height="16" rx="8" transform="matrix(-1 0 0 1 224 82)" fill="#FF9BA3"/>
<rect width="16" height="16" rx="8" transform="matrix(-1 0 0 1 256 82)" fill="#C6A8EC"/>
<rect width="24" height="16" rx="8" transform="matrix(-1 0 0 1 296 82)" fill="#88F3B5"/>
<rect width="56" height="16" rx="8" transform="matrix(-1 0 0 1 368 82)" fill="#818286"/>
<rect width="56" height="16" rx="8" transform="matrix(-1 0 0 1 440 82)" fill="#41424B"/>
<rect width="56" height="16" rx="8" transform="matrix(-1 0 0 1 32 114)" fill="#41424B"/>
<rect width="56" height="16" rx="8" transform="matrix(-1 0 0 1 104 114)" fill="#41424B"/>
<rect width="24" height="16" rx="8" transform="matrix(-1 0 0 1 144 114)" fill="#27AE60"/>
<rect width="16" height="16" rx="8" transform="matrix(-1 0 0 1 176 114)" fill="#CBE0FF"/>
<rect width="16" height="16" rx="8" transform="matrix(-1 0 0 1 208 114)" fill="#FFEEBE"/>
<rect width="16" height="16" rx="8" transform="matrix(-1 0 0 1 240 114)" fill="#52D188"/>
<rect width="16" height="16" rx="8" transform="matrix(-1 0 0 1 272 114)" fill="#5595F4"/>
<rect width="24" height="16" rx="8" transform="matrix(-1 0 0 1 312 114)" fill="#52D188"/>
<rect width="56" height="16" rx="8" transform="matrix(-1 0 0 1 384 114)" fill="#41424B"/>
<rect width="56" height="16" rx="8" transform="matrix(-1 0 0 1 456 114)" fill="#515258"/>
<rect width="56" height="16" rx="8" transform="matrix(-1 0 0 1 72 146)" fill="#41424B"/>
<rect width="24" height="16" rx="8" transform="matrix(-1 0 0 1 112 146)" fill="#27AE60"/>
<rect width="16" height="16" rx="8" transform="matrix(-1 0 0 1 144 146)" fill="#CBE0FF"/>
<rect width="16" height="16" rx="8" transform="matrix(-1 0 0 1 176 146)" fill="#FFEEBE"/>
<rect width="16" height="16" rx="8" transform="matrix(-1 0 0 1 208 146)" fill="#FF4756"/>
<rect width="16" height="16" rx="8" transform="matrix(-1 0 0 1 240 146)" fill="#CBE0FF"/>
<rect width="16" height="16" rx="8" transform="matrix(-1 0 0 1 272 146)" fill="#52D188"/>
<rect width="16" height="16" rx="8" transform="matrix(-1 0 0 1 304 146)" fill="#FF8800"/>
<rect width="24" height="16" rx="8" transform="matrix(-1 0 0 1 344 146)" fill="#27AE60"/>
<rect width="56" height="16" rx="8" transform="matrix(-1 0 0 1 416 146)" fill="#41424B"/>
<rect width="32" height="16" rx="8" transform="matrix(-1 0 0 1 48 178)" fill="#18181C"/>
<rect width="56" height="16" rx="8" transform="matrix(-1 0 0 1 120 178)" fill="#515258"/>
<rect width="24" height="16" rx="8" transform="matrix(-1 0 0 1 160 178)" fill="#27AE60"/>
<rect width="16" height="16" rx="8" transform="matrix(-1 0 0 1 192 178)" fill="#FF9BA3"/>
<rect width="16" height="16" rx="8" transform="matrix(-1 0 0 1 224 178)" fill="#FFEEBE"/>
<rect width="16" height="16" rx="8" transform="matrix(-1 0 0 1 256 178)" fill="#E2CCFD"/>
<rect width="24" height="16" rx="8" transform="matrix(-1 0 0 1 296 178)" fill="#52D188"/>
<rect width="56" height="16" rx="8" transform="matrix(-1 0 0 1 368 178)" fill="#515258"/>
<rect width="56" height="16" rx="8" transform="matrix(-1 0 0 1 440 178)" fill="#41424B"/>
<rect width="56" height="16" rx="8" transform="matrix(-1 0 0 1 64 210)" fill="#515258"/>
<rect width="32" height="16" rx="8" transform="matrix(-1 0 0 1 112 210)" fill="#515258"/>
<rect width="56" height="16" rx="8" transform="matrix(-1 0 0 1 184 210)" fill="#41424B"/>
<rect width="32" height="16" rx="8" transform="matrix(-1 0 0 1 232 210)" fill="#9A6931"/>
<rect width="32" height="16" rx="8" transform="matrix(-1 0 0 1 280 210)" fill="#18181C"/>
<rect width="56" height="16" rx="8" transform="matrix(-1 0 0 1 352 210)" fill="#41424B"/>
<rect width="56" height="16" rx="8" transform="matrix(-1 0 0 1 424 210)" fill="#515258"/>
</g>
<defs>
<clipPath id="clip0_1558_1461">
<rect width="432" height="244" rx="12" transform="matrix(-1 0 0 1 432 0)" fill="white"/>
</clipPath>
</defs>
</svg>
