<svg width="432" height="244" viewBox="0 0 432 244" fill="none" xmlns="http://www.w3.org/2000/svg">
<rect width="432" height="244" rx="12" transform="matrix(-1 0 0 1 432 0)" fill="#2D2E35"/>
<rect x="15" y="15" width="52" height="52" rx="26" fill="#FFF7DF"/>
<path fill-rule="evenodd" clip-rule="evenodd" d="M48.8886 43.2861C48.7262 44.9451 48.3901 46.503 47.9135 47.9031L51.2967 50.9104C51.7095 51.2774 51.7467 51.9094 51.3798 52.3222L51.19 52.5358C50.8231 52.9485 50.191 52.9857 49.7782 52.6188L46.972 50.1244C45.5068 52.9411 43.3738 54.7147 40.9992 54.7147C38.6245 54.7147 36.4915 52.9411 35.0264 50.1244L32.2201 52.6188C31.8074 52.9857 31.1753 52.9485 30.8084 52.5358L30.6185 52.3222C30.2516 51.9094 30.2888 51.2774 30.7016 50.9104L34.0849 47.9031C33.6082 46.503 33.2721 44.9451 33.1098 43.2861H29.4277C28.8754 43.2861 28.4277 42.8384 28.4277 42.2861V42.0004C28.4277 41.4481 28.8754 41.0004 29.4277 41.0004L32.9992 41.0004C32.9992 39.2063 33.2001 37.4926 33.5656 35.9219L30.7016 33.3761C30.2888 33.0092 30.2516 32.3771 30.6185 31.9643L30.8084 31.7508C31.1753 31.338 31.8073 31.3008 32.2201 31.6677L37.9094 36.7249L40.023 38.5365C40.5847 39.018 41.4136 39.018 41.9754 38.5365L44.0887 36.7251L49.7782 31.6677C50.191 31.3008 50.823 31.338 51.19 31.7508L51.3798 31.9643C51.7467 32.3771 51.7095 33.0092 51.2967 33.3761L48.4327 35.9219C48.7982 37.4926 48.9992 39.2063 48.9992 41.0004L52.5706 41.0004C53.1229 41.0004 53.5706 41.4481 53.5706 42.0004V42.2861C53.5706 42.8384 53.1229 43.2861 52.5706 43.2861H48.8886ZM40.6738 37.7773L34.6635 32.6256C36.1265 29.3779 38.4204 27.2861 40.9992 27.2861C43.578 27.2861 45.8718 29.3779 47.3348 32.6256L41.3246 37.7773C41.1373 37.9377 40.861 37.9377 40.6738 37.7773Z" fill="#FF4756"/>
<rect x="15" y="15" width="52" height="52" rx="26" stroke="#818286" stroke-width="4"/>
<rect width="114" height="16" rx="8" transform="matrix(-1 0 0 1 198 18)" fill="#515258"/>
<rect width="114" height="16" rx="8" transform="matrix(-1 0 0 1 328 18)" fill="#818286"/>
<rect width="216" height="16" rx="8" transform="matrix(-1 0 0 1 300 50)" fill="#515258"/>
<rect width="71" height="16" rx="8" transform="matrix(-1 0 0 1 387 50)" fill="#41424B"/>
<rect width="28" height="16" rx="8" transform="matrix(-1 0 0 1 160 82)" fill="#41424B"/>
<rect width="114" height="16" rx="8" transform="matrix(-1 0 0 1 290 82)" fill="#818286"/>
<rect width="100" height="16" rx="8" transform="matrix(-1 0 0 1 406 82)" fill="#515258"/>
<rect width="44" height="16" rx="8" transform="matrix(-1 0 0 1 176 114)" fill="#515258"/>
<rect width="40" height="16" rx="8" transform="matrix(-1 0 0 1 232 114)" fill="#FF4756"/>
<rect width="113" height="16" rx="8" transform="matrix(-1 0 0 1 361 114)" fill="#515258"/>
<rect width="26" height="16" rx="8" transform="matrix(-1 0 0 1 110 146)" fill="#515258"/>
<rect width="158" height="16" rx="8" transform="matrix(-1 0 0 1 284 146)" fill="#818286"/>
<rect width="114" height="16" rx="8" transform="matrix(-1 0 0 1 198 178)" fill="#515258"/>
<rect width="60" height="16" rx="8" transform="matrix(-1 0 0 1 144 210)" fill="#818286"/>
<rect width="114" height="16" rx="8" transform="matrix(-1 0 0 1 274 210)" fill="#515258"/>
</svg>
