<svg width="432" height="244" viewBox="0 0 432 244" fill="none" xmlns="http://www.w3.org/2000/svg">
<rect width="432" height="244" rx="12" transform="matrix(-1 0 0 1 432 0)" fill="#2D2E35"/>
<rect x="16" y="16" width="52" height="52" rx="26" fill="#FFF7DF"/>
<path fill-rule="evenodd" clip-rule="evenodd" d="M49.8886 44.2861C49.7262 45.9451 49.3901 47.503 48.9135 48.9031L52.2967 51.9104C52.7095 52.2774 52.7467 52.9094 52.3798 53.3222L52.19 53.5358C51.8231 53.9485 51.191 53.9857 50.7782 53.6188L47.972 51.1244C46.5068 53.9411 44.3738 55.7147 41.9992 55.7147C39.6245 55.7147 37.4915 53.9411 36.0264 51.1244L33.2201 53.6188C32.8074 53.9857 32.1753 53.9485 31.8084 53.5358L31.6185 53.3222C31.2516 52.9094 31.2888 52.2774 31.7016 51.9104L35.0849 48.9031C34.6082 47.503 34.2721 45.9451 34.1098 44.2861H30.4277C29.8754 44.2861 29.4277 43.8384 29.4277 43.2861V43.0004C29.4277 42.4481 29.8754 42.0004 30.4277 42.0004L33.9992 42.0004C33.9992 40.2063 34.2001 38.4926 34.5656 36.9219L31.7016 34.3761C31.2888 34.0092 31.2516 33.3771 31.6185 32.9643L31.8084 32.7508C32.1753 32.338 32.8073 32.3008 33.2201 32.6677L38.9094 37.7249L41.023 39.5365C41.5847 40.018 42.4136 40.018 42.9754 39.5365L45.0887 37.7251L50.7782 32.6677C51.191 32.3008 51.823 32.338 52.19 32.7508L52.3798 32.9643C52.7467 33.3771 52.7095 34.0092 52.2967 34.3761L49.4327 36.9219C49.7982 38.4926 49.9992 40.2063 49.9992 42.0004L53.5706 42.0004C54.1229 42.0004 54.5706 42.4481 54.5706 43.0004V43.2861C54.5706 43.8384 54.1229 44.2861 53.5706 44.2861H49.8886ZM41.6738 38.7773L35.6635 33.6256C37.1265 30.3779 39.4204 28.2861 41.9992 28.2861C44.578 28.2861 46.8718 30.3779 48.3348 33.6256L42.3246 38.7773C42.1373 38.9377 41.861 38.9377 41.6738 38.7773Z" fill="#FF4756"/>
<rect x="16" y="16" width="52" height="52" rx="26" stroke="#818286" stroke-width="4"/>
<rect width="114" height="16" rx="8" transform="matrix(-1 0 0 1 198 18)" fill="#515258"/>
<rect width="114" height="16" rx="8" transform="matrix(-1 0 0 1 328 18)" fill="#818286"/>
<rect width="216" height="16" rx="8" transform="matrix(-1 0 0 1 300 50)" fill="#515258"/>
<rect width="71" height="16" rx="8" transform="matrix(-1 0 0 1 387 50)" fill="#41424B"/>
<rect width="28" height="16" rx="8" transform="matrix(-1 0 0 1 160 82)" fill="#41424B"/>
<rect width="114" height="16" rx="8" transform="matrix(-1 0 0 1 290 82)" fill="#818286"/>
<rect width="100" height="16" rx="8" transform="matrix(-1 0 0 1 406 82)" fill="#515258"/>
<rect width="44" height="16" rx="8" transform="matrix(-1 0 0 1 176 114)" fill="#515258"/>
<rect width="40" height="16" rx="8" transform="matrix(-1 0 0 1 232 114)" fill="#FF4756"/>
<rect width="113" height="16" rx="8" transform="matrix(-1 0 0 1 361 114)" fill="#515258"/>
<rect width="26" height="16" rx="8" transform="matrix(-1 0 0 1 110 146)" fill="#515258"/>
<rect width="158" height="16" rx="8" transform="matrix(-1 0 0 1 284 146)" fill="#818286"/>
<rect width="114" height="16" rx="8" transform="matrix(-1 0 0 1 198 178)" fill="#515258"/>
<rect width="60" height="16" rx="8" transform="matrix(-1 0 0 1 144 210)" fill="#818286"/>
<rect width="114" height="16" rx="8" transform="matrix(-1 0 0 1 274 210)" fill="#515258"/>
</svg>
