<svg width="100%" height="100%" viewBox="0 0 14 14" fill="none" xmlns="http://www.w3.org/2000/svg">
<path d="M3.16292 6.53514C2.90403 6.53514 2.69417 6.74501 2.69417 7.00389C2.69417 7.26278 2.90403 7.47264 3.16292 7.47264H9.0963C9.31902 7.47264 9.43056 7.74193 9.27307 7.89942L7.32628 9.84622C7.1454 10.0271 7.14636 10.3206 7.32841 10.5003C7.50879 10.6784 7.79906 10.6774 7.97827 10.4982L11.1194 7.35705C11.3145 7.16194 11.3147 6.84567 11.1198 6.65034L7.98634 3.50987C7.80342 3.32655 7.50617 3.32734 7.32423 3.51164C7.14388 3.69433 7.14506 3.98842 7.32687 4.16965L9.27144 6.10809C9.42932 6.26546 9.31786 6.53514 9.09495 6.53514H3.16292Z" fill="currentColor"/>
</svg>
