<svg width="14" height="14" viewBox="0 0 14 14" fill="none" xmlns="http://www.w3.org/2000/svg">
<path d="M4 3.5C4 4.15311 3.5826 4.70873 3 4.91465V6.53514H7V4.91465C6.4174 4.70873 6 4.15311 6 3.5C6 2.67157 6.67157 2 7.5 2C8.32843 2 9 2.67157 9 3.5C9 4.15311 8.5826 4.70873 8 4.91465V6.53514H11.4C11.623 6.53514 11.7344 6.26523 11.5763 6.10792L10.6331 5.16943C10.4511 4.98837 10.4498 4.69424 10.6301 4.51155C10.812 4.32732 11.1092 4.32659 11.292 4.50992L13.4259 6.65034C13.6207 6.84569 13.6204 7.16186 13.4254 7.35691L11.2841 9.4982C11.1049 9.67741 10.8146 9.67836 10.6342 9.50033C10.4522 9.32064 10.4512 9.02709 10.6321 8.84622L11.5789 7.89942C11.7364 7.74193 11.6249 7.47264 11.4021 7.47264H5.5V9.08535C6.0826 9.29127 6.5 9.84689 6.5 10.5C6.5 11.3284 5.82843 12 5 12C4.17157 12 3.5 11.3284 3.5 10.5C3.5 9.84689 3.9174 9.29127 4.5 9.08535V7.47264H0.46875C0.209866 7.47264 0 7.26278 0 7.00389C0 6.74501 0.209867 6.53514 0.46875 6.53514H2V4.91465C1.4174 4.70873 1 4.15311 1 3.5C1 2.67157 1.67157 2 2.5 2C3.32843 2 4 2.67157 4 3.5Z" fill="currentColor"/>
</svg>
