<svg width="14" height="14" viewBox="0 0 14 14" fill="none" xmlns="http://www.w3.org/2000/svg">
<path d="M11.75 2C12.1484 2 12.5 2.35156 12.5 2.77344V11.75C12.5 12.1719 12.1484 12.5 11.75 12.5H2.72656C2.32812 12.5 2 12.1719 2 11.75V2.77344C2 2.35156 2.32812 2 2.72656 2H11.75ZM5.16406 11V6.00781H3.61719V11H5.16406ZM4.39062 5.30469C4.88281 5.30469 5.28125 4.90625 5.28125 4.41406C5.28125 3.92188 4.88281 3.5 4.39062 3.5C3.875 3.5 3.47656 3.92188 3.47656 4.41406C3.47656 4.90625 3.875 5.30469 4.39062 5.30469ZM11 11V8.25781C11 6.92188 10.6953 5.86719 9.125 5.86719C8.375 5.86719 7.85938 6.28906 7.64844 6.6875H7.625V6.00781H6.14844V11H7.69531V8.53906C7.69531 7.88281 7.8125 7.25 8.63281 7.25C9.42969 7.25 9.42969 8 9.42969 8.5625V11H11Z" fill="currentColor"/>
</svg>
