<svg width="14" height="14" viewBox="0 0 14 14" fill="none" xmlns="http://www.w3.org/2000/svg">
<path fill-rule="evenodd" clip-rule="evenodd" d="M5.3118 10.2185C5.44779 10.8591 5.62318 11.4172 5.82773 11.8618C5.1554 11.7003 4.53595 11.4029 4.00002 11.0004L4 11C4 11 4.00007 10.9974 4.00064 10.9946C4.00124 10.9916 4.00277 10.9854 4.00676 10.9757C4.01484 10.956 4.03417 10.9189 4.07781 10.8674C4.16902 10.7595 4.3402 10.6195 4.61879 10.4802C4.81638 10.3814 5.04946 10.2924 5.3118 10.2185ZM6.29524 10.0355C6.36538 10.362 6.4459 10.6607 6.53447 10.9264C6.69338 11.4031 6.86078 11.7206 7 11.9006C7.13922 11.7206 7.30662 11.4031 7.46553 10.9264C7.5541 10.6607 7.63462 10.362 7.70476 10.0355C7.48009 10.0125 7.24445 10 7 10C6.75555 10 6.51991 10.0125 6.29524 10.0355ZM7.87267 9.04774C7.59177 9.01649 7.29973 9 7 9C6.70027 9 6.40823 9.01649 6.12733 9.04774C6.06485 8.56648 6.02317 8.04697 6.00724 7.5H7.99276C7.97683 8.04697 7.93515 8.56648 7.87267 9.04774ZM7.99276 6.5H6.00724C6.02317 5.95303 6.06485 5.43353 6.12733 4.95226C6.40823 4.98351 6.70027 5 7 5C7.29973 5 7.59177 4.98351 7.87267 4.95226C7.93515 5.43353 7.97683 5.95303 7.99276 6.5ZM8.99315 7.5C8.97649 8.10611 8.92979 8.68668 8.85753 9.22828C9.7267 9.45656 10.4073 9.84006 10.7519 10.3051C11.4253 9.5413 11.869 8.57029 11.9753 7.5H8.99315ZM11.9753 6.5C11.869 5.42971 11.4253 4.4587 10.7519 3.69492C10.4073 4.15994 9.7267 4.54344 8.85754 4.77172C8.92979 5.31332 8.97649 5.89389 8.99315 6.5H11.9753ZM5.00685 6.5C5.02351 5.89389 5.07021 5.31333 5.14246 4.77173C4.2733 4.54344 3.59271 4.15995 3.24806 3.69492C2.57472 4.4587 2.13095 5.42971 2.02469 6.5H5.00685ZM2.02469 7.5C2.13095 8.57029 2.57472 9.5413 3.24806 10.3051C3.59271 9.84006 4.2733 9.45656 5.14247 9.22828C5.07021 8.68668 5.02351 8.10611 5.00685 7.5H2.02469ZM6.53447 3.07359C6.4459 3.33929 6.36538 3.63797 6.29524 3.96455C6.51991 3.98755 6.75555 4 7 4C7.24445 4 7.48009 3.98755 7.70476 3.96455C7.63462 3.63797 7.5541 3.33929 7.46553 3.07359C7.30662 2.59686 7.13922 2.27937 7 2.09935C6.86078 2.27937 6.69338 2.59686 6.53447 3.07359ZM5.82773 2.13818C5.1554 2.29971 4.53595 2.59707 4.00002 2.99962L4 3C4 3 4.00007 3.00261 4.00064 3.00544C4.00124 3.00839 4.00277 3.01457 4.00676 3.0243C4.01484 3.04405 4.03417 3.08106 4.07781 3.13265C4.16902 3.24047 4.3402 3.38049 4.61879 3.51979C4.81638 3.61858 5.04946 3.70765 5.3118 3.78148C5.44779 3.14085 5.62318 2.58285 5.82773 2.13818ZM10 3L9.99998 2.99962C9.46405 2.59707 8.8446 2.29971 8.17227 2.13818C8.37682 2.58285 8.55221 3.14085 8.6882 3.78148C8.95054 3.70765 9.18362 3.61858 9.38121 3.51979C9.6598 3.38049 9.83098 3.24047 9.92219 3.13265C9.96583 3.08106 9.98516 3.04405 9.99324 3.0243C9.99723 3.01457 9.99876 3.00839 9.99936 3.00544C9.99993 3.00261 10 3 10 3ZM8.6882 10.2185C8.55221 10.8591 8.37682 11.4172 8.17227 11.8618C8.8446 11.7003 9.46405 11.4029 9.99998 11.0004L10 11C10 11 9.99993 10.9974 9.99936 10.9946C9.99876 10.9916 9.99723 10.9854 9.99324 10.9757C9.98516 10.956 9.96583 10.9189 9.92219 10.8674C9.83098 10.7595 9.6598 10.6195 9.38121 10.4802C9.18362 10.3814 8.95054 10.2924 8.6882 10.2185ZM13 7C13 3.68629 10.3137 1 7 1C3.68629 1 1 3.68629 1 7C1 10.3137 3.68629 13 7 13C10.3137 13 13 10.3137 13 7Z" fill="#18181C"/>
</svg>
