<svg width="100%" height="100%" viewBox="0 0 14 14" fill="none" xmlns="http://www.w3.org/2000/svg">
<path fill-rule="evenodd" clip-rule="evenodd" d="M7 12C9.76142 12 12 9.76142 12 7C12 4.23858 9.76142 2 7 2C4.23858 2 2 4.23858 2 7C2 9.76142 4.23858 12 7 12ZM7 13C10.3137 13 13 10.3137 13 7C13 3.68629 10.3137 1 7 1C3.68629 1 1 3.68629 1 7C1 10.3137 3.68629 13 7 13Z" fill="currentColor"/>
<path d="M5.25 9.00815C5.25 9.39485 5.67019 9.63518 6.00351 9.43911L9.51736 7.37214C9.84601 7.17882 9.84601 6.70354 9.51736 6.51021L6.00351 4.44324C5.67019 4.24717 5.25 4.4875 5.25 4.87421V9.00815Z" fill="currentColor"/>
</svg>
