<svg width="14" height="14" viewBox="0 0 14 14" fill="none" xmlns="http://www.w3.org/2000/svg">
<path fill-rule="evenodd" clip-rule="evenodd" d="M11.8366 4.73209C11.6136 3.88145 11.168 3.09696 10.5355 2.46447C9.59785 1.52678 8.32608 1 7 1C5.67392 1 4.40215 1.52678 3.46447 2.46447C2.83197 3.09696 2.38644 3.88145 2.16341 4.73209C1.95198 5.53853 2.26049 6.36469 2.74506 7.04309L6.59313 12.4304C6.79254 12.7096 7.20746 12.7096 7.40687 12.4304L11.2549 7.04309C11.7395 6.36469 12.048 5.53853 11.8366 4.73209ZM7 7C8.10457 7 9 6.10457 9 5C9 3.89543 8.10457 3 7 3C5.89543 3 5 3.89543 5 5C5 6.10457 5.89543 7 7 7Z" fill="currentColor"/>
</svg>
