<svg width="14" height="14" viewBox="0 0 14 14" fill="none" xmlns="http://www.w3.org/2000/svg">
<path fill-rule="evenodd" clip-rule="evenodd" d="M10.8 1H4.2C3.59249 1 3.1 1.44772 3.1 2V2.7C3.1 3.00376 2.85376 3.25 2.55 3.25C2.24624 3.25 2 3.00376 2 2.7V2C2 0.89543 2.98497 0 4.2 0H10.8C12.015 0 13 0.895431 13 2V12C13 13.1046 12.015 14 10.8 14H4.2C2.98497 14 2 13.1046 2 12V11.3C2 10.9962 2.24624 10.75 2.55 10.75C2.85376 10.75 3.1 10.9962 3.1 11.3V12C3.1 12.5523 3.59249 13 4.2 13H10.8C11.4075 13 11.9 12.5523 11.9 12V2C11.9 1.44772 11.4075 1 10.8 1ZM1 5C1 4.72386 1.22386 4.5 1.5 4.5H3C3.27614 4.5 3.5 4.72386 3.5 5C3.5 5.27614 3.27614 5.5 3 5.5H1.5C1.22386 5.5 1 5.27614 1 5ZM1.5 6.5C1.22386 6.5 1 6.72386 1 7C1 7.27614 1.22386 7.5 1.5 7.5H3C3.27614 7.5 3.5 7.27614 3.5 7C3.5 6.72386 3.27614 6.5 3 6.5H1.5ZM1 9C1 8.72386 1.22386 8.5 1.5 8.5H3C3.27614 8.5 3.5 8.72386 3.5 9C3.5 9.27614 3.27614 9.5 3 9.5H1.5C1.22386 9.5 1 9.27614 1 9ZM8.33744 4.55102C8.33744 5.01314 7.96282 5.38775 7.5007 5.38775C7.03859 5.38775 6.66397 5.01314 6.66397 4.55102C6.66397 4.0889 7.03859 3.71429 7.5007 3.71429C7.96282 3.71429 8.33744 4.0889 8.33744 4.55102ZM7.5007 7C7.13123 7 6.7745 7.06364 6.43812 7.18203C5.47408 7.52134 4.67721 8.31037 4.22674 9.34005C3.78401 10.352 4.72267 11.2857 5.82724 11.2857H9.17417C10.2787 11.2857 11.2174 10.352 10.7747 9.34005C10.3242 8.31037 9.52733 7.52134 8.56329 7.18203C8.22691 7.06364 7.87018 7 7.5007 7ZM7.5007 6.38775C7.14547 6.38775 6.8138 6.28691 6.53274 6.11229C6.01121 5.78826 5.66397 5.21019 5.66397 4.55102C5.66397 3.53662 6.4863 2.71429 7.5007 2.71429C8.51511 2.71429 9.33744 3.53662 9.33744 4.55102C9.33744 5.21019 8.9902 5.78826 8.46867 6.11229C8.18761 6.28691 7.85593 6.38775 7.5007 6.38775ZM5.1429 9.74086C5.62514 8.63857 6.54771 8 7.5007 8C8.4537 8 9.37627 8.63857 9.85851 9.74086C9.89137 9.81596 9.88869 9.86067 9.88375 9.88709C9.87774 9.91922 9.85861 9.96975 9.80463 10.031C9.68847 10.1627 9.45714 10.2857 9.17417 10.2857H5.82724C5.54427 10.2857 5.31294 10.1627 5.19678 10.031C5.1428 9.96975 5.12367 9.91922 5.11766 9.88709C5.11271 9.86067 5.11004 9.81596 5.1429 9.74086Z" fill="#18181C"/>
</svg>
