<svg width="432" height="244" viewBox="0 0 432 244" fill="none" xmlns="http://www.w3.org/2000/svg">
<rect width="432" height="244" rx="12" transform="matrix(-1 0 0 1 432 0)" fill="#2D2E35"/>
<rect x="16" y="16" width="52" height="52" rx="26" fill="#515258"/>
<path d="M39.566 54.0937V51.3957C37.277 51.3957 36.7316 50.4606 36.7316 48.4347V45.2399C36.7316 43.7204 36.1277 42.4347 33.4978 41.9087V41.5386C36.1277 41.0126 36.7316 39.7171 36.7316 38.1976V35.0028C36.7316 32.9866 37.277 32.0515 39.566 32.0515V29.3438C35.6699 29.3438 33.3809 30.3275 33.3809 34.7204V37.2041C33.3809 39.2496 32.6212 40.0873 30.4102 40.0873V43.36C32.6212 43.36 33.3809 44.1976 33.3809 46.2431V48.7171C33.3809 53.11 35.6699 54.0937 39.566 54.0937Z" fill="#9EC5FF"/>
<path d="M44.4313 29.3535V32.0515C46.7202 32.0515 47.2657 32.9866 47.2657 35.0126V38.2074C47.2657 39.7269 47.8696 41.0126 50.4994 41.5386V41.9087C47.8696 42.4347 47.2657 43.7301 47.2657 45.2496V48.4444C47.2657 50.4606 46.7202 51.3957 44.4313 51.3957V54.1035C48.3274 54.1035 50.6163 53.1197 50.6163 48.7269V46.2431C50.6163 44.1976 51.3761 43.36 53.5871 43.36V40.0873C51.3761 40.0873 50.6163 39.2496 50.6163 37.2041V34.7301C50.6163 30.3373 48.3274 29.3535 44.4313 29.3535Z" fill="#9EC5FF"/>
<rect x="16" y="16" width="52" height="52" rx="26" stroke="#41424B" stroke-width="4"/>
<rect width="114" height="16" rx="8" transform="matrix(-1 0 0 1 198 18)" fill="#515258"/>
<rect width="114" height="16" rx="8" transform="matrix(-1 0 0 1 328 18)" fill="#818286"/>
<rect width="216" height="16" rx="8" transform="matrix(-1 0 0 1 300 50)" fill="#5595F4"/>
<rect width="71" height="16" rx="8" transform="matrix(-1 0 0 1 387 50)" fill="#41424B"/>
<rect width="28" height="16" rx="8" transform="matrix(-1 0 0 1 160 82)" fill="#41424B"/>
<rect width="114" height="16" rx="8" transform="matrix(-1 0 0 1 290 82)" fill="#818286"/>
<rect width="100" height="16" rx="8" transform="matrix(-1 0 0 1 406 82)" fill="#515258"/>
<rect width="44" height="16" rx="8" transform="matrix(-1 0 0 1 176 114)" fill="#515258"/>
<rect width="40" height="16" rx="8" transform="matrix(-1 0 0 1 232 114)" fill="#41424B"/>
<rect width="113" height="16" rx="8" transform="matrix(-1 0 0 1 361 114)" fill="#515258"/>
<rect width="26" height="16" rx="8" transform="matrix(-1 0 0 1 110 146)" fill="#515258"/>
<rect width="158" height="16" rx="8" transform="matrix(-1 0 0 1 284 146)" fill="#818286"/>
<rect width="114" height="16" rx="8" transform="matrix(-1 0 0 1 198 178)" fill="#515258"/>
<rect width="60" height="16" rx="8" transform="matrix(-1 0 0 1 144 210)" fill="#41424B"/>
<rect width="114" height="16" rx="8" transform="matrix(-1 0 0 1 274 210)" fill="#515258"/>
<rect x="81" y="78" width="228" height="88" rx="10" fill="#5595F4"/>
<rect width="26" height="12" rx="6" transform="matrix(-1 0 0 1 121 92)" fill="#9EC5FF"/>
<rect width="158" height="12" rx="6" transform="matrix(-1 0 0 1 295 92)" fill="#225EBE"/>
<rect width="114" height="12" rx="6" transform="matrix(-1 0 0 1 209 116)" fill="#9EC5FF"/>
<rect width="60" height="12" rx="6" transform="matrix(-1 0 0 1 155 140)" fill="#225EBE"/>
<rect width="114" height="12" rx="6" transform="matrix(-1 0 0 1 285 140)" fill="#9EC5FF"/>
<rect x="81" y="78" width="228" height="88" rx="10" stroke="#9EC5FF" stroke-width="4"/>
<path d="M200.585 198.071L196.657 202C194.313 204.343 190.514 204.343 188.171 202L182.828 196.657C182.047 195.876 180.781 195.876 180 196.657L174.657 202C172.313 204.343 168.514 204.343 166.171 202L160.828 196.657C160.047 195.876 158.781 195.876 158 196.657L152.657 202C150.313 204.343 146.514 204.343 144.171 202L138.828 196.657C138.047 195.876 136.781 195.876 136 196.657L130.657 202C128.313 204.343 124.514 204.343 122.171 202L116.828 196.657C116.047 195.876 114.781 195.876 114 196.657L108.657 202C106.313 204.343 102.514 204.343 100.171 202L94.8281 196.657C94.0471 195.876 92.7807 195.876 91.9997 196.657L87.2423 201.414C86.4613 202.195 85.195 202.195 84.4139 201.414C83.6329 200.633 83.6329 199.367 84.4139 198.586L89.1713 193.829C91.5144 191.486 95.3134 191.485 97.6566 193.829L103 199.172C103.781 199.953 105.047 199.953 105.828 199.172L111.171 193.829C113.514 191.486 117.313 191.485 119.657 193.829L125 199.172C125.781 199.953 127.047 199.953 127.828 199.172L133.171 193.829C135.514 191.486 139.313 191.485 141.657 193.829L147 199.172C147.781 199.953 149.047 199.953 149.828 199.172L155.171 193.829C157.514 191.486 161.313 191.486 163.657 193.829L169 199.172C169.781 199.953 171.047 199.953 171.828 199.172L177.171 193.829C179.514 191.486 183.313 191.486 185.657 193.829L191 199.172C191.781 199.953 193.047 199.953 193.828 199.172L197.757 195.243C198.538 194.462 199.804 194.462 200.585 195.243C201.367 196.024 201.367 197.29 200.585 198.071Z" fill="#FF4756"/>
<path fill-rule="evenodd" clip-rule="evenodd" d="M197.757 195.243L194.929 192.414C197.272 190.071 201.071 190.071 203.414 192.414C205.757 194.758 205.757 198.557 203.414 200.9L199.485 204.829L196.657 202L200.585 198.071C201.367 197.29 201.367 196.024 200.585 195.243C199.804 194.462 198.538 194.462 197.757 195.243ZM192.414 194.929L194.929 192.414L197.757 195.243L193.828 199.172C193.047 199.953 191.781 199.953 191 199.172L185.657 193.829L188.485 191L192.414 194.929ZM163.657 193.829L166.485 191L170.414 194.929L174.343 191C178.248 187.095 184.58 187.095 188.485 191L185.657 193.829C183.606 191.778 180.441 191.522 178.113 193.06C177.78 193.279 177.464 193.536 177.171 193.829L171.828 199.172C171.047 199.953 169.781 199.953 169 199.172L163.657 193.829ZM181.414 200.9L177.485 204.829C173.58 208.734 167.248 208.734 163.343 204.829L166.171 202C168.514 204.343 172.313 204.343 174.657 202L180 196.657C180.781 195.876 182.047 195.876 182.828 196.657L188.171 202L185.343 204.829L181.414 200.9ZM196.657 202C194.313 204.343 190.514 204.343 188.171 202L185.343 204.829C189.248 208.734 195.58 208.734 199.485 204.829L196.657 202ZM159.414 200.9L163.343 204.829L166.171 202L160.828 196.657C160.047 195.876 158.781 195.876 158 196.657L152.657 202C150.313 204.343 146.514 204.343 144.171 202L138.828 196.657C138.047 195.876 136.781 195.876 136 196.657L130.657 202C130.364 202.293 130.048 202.549 129.715 202.769C127.386 204.307 124.222 204.05 122.171 202L116.828 196.657C116.73 196.559 116.625 196.474 116.514 196.401C115.738 195.888 114.683 195.974 114 196.657L108.657 202C108.364 202.293 108.048 202.549 107.715 202.769C105.386 204.307 102.222 204.05 100.171 202L94.8281 196.657C94.0471 195.876 92.7807 195.876 91.9997 196.657L87.2429 201.414C86.4619 202.195 85.195 202.195 84.4139 201.414C83.6329 200.633 83.6329 199.367 84.4139 198.586C84.4137 198.586 84.4141 198.586 84.4139 198.586C84.4141 198.586 84.4149 198.585 84.4152 198.585L89.1713 193.829C89.4642 193.536 89.7798 193.279 90.1125 193.06C92.4414 191.522 95.6063 191.778 97.6566 193.829L103 199.172C103.097 199.269 103.203 199.355 103.313 199.428C104.09 199.941 105.145 199.855 105.828 199.172L111.171 193.829C113.514 191.486 117.313 191.486 119.657 193.829L125 199.172C125.097 199.269 125.203 199.355 125.313 199.428C126.09 199.941 127.145 199.855 127.828 199.172L133.171 193.829C134.35 192.65 135.896 192.064 137.441 192.071C137.816 192.073 138.191 192.11 138.56 192.181C139.694 192.401 140.778 192.95 141.657 193.829L147 199.172C147.781 199.953 149.047 199.953 149.828 199.172L155.171 193.829C155.464 193.536 155.78 193.279 156.113 193.06C158.441 191.522 161.606 191.778 163.657 193.829L166.485 191C162.58 187.095 156.248 187.095 152.343 191L148.414 194.929L144.485 191C140.58 187.095 134.248 187.095 130.343 191L126.414 194.929L122.485 191C118.58 187.095 112.248 187.095 108.343 191L104.414 194.929L100.485 191C96.5797 187.095 90.2481 187.095 86.3428 191L81.5855 195.758C79.2423 198.101 79.2423 201.9 81.5855 204.243C83.9286 206.586 87.7276 206.586 90.0708 204.243L93.4139 200.9L97.3428 204.829C101.248 208.734 107.58 208.734 111.485 204.829L115.414 200.9L119.343 204.829C123.248 208.734 129.58 208.734 133.485 204.829L137.414 200.9L141.343 204.829C145.248 208.734 151.58 208.734 155.485 204.829L159.414 200.9Z" fill="#2D2E35"/>
</svg>
