<svg width="1024" height="356" viewBox="0 0 1024 356" fill="none" xmlns="http://www.w3.org/2000/svg">
<rect width="1024" height="356" fill="url(#paint0_radial_1733_1800)"/>
<g opacity="0.65">
<rect x="880" y="56" width="32" height="32" rx="16" fill="#ECF2FA"/>
<path fill-rule="evenodd" clip-rule="evenodd" d="M898.004 74.5C898.046 73.8343 898.438 73.2416 898.902 72.7525C899.583 72.0354 900 71.0665 900 70C900 67.7909 898.209 66 896 66C893.791 66 892 67.7909 892 70C892 71.0665 892.417 72.0354 893.098 72.7525C893.562 73.2416 893.954 73.8343 893.996 74.5H898.004ZM898 75.5H894V76C894 77.1046 894.895 78 896 78C897.105 78 898 77.1046 898 76V75.5ZM896 67.6C896 67.2686 895.729 66.994 895.404 67.0598C895.151 67.111 894.906 67.1947 894.673 67.3094C894.26 67.5129 893.9 67.8086 893.62 68.1737C893.34 68.5388 893.147 68.9634 893.058 69.4147C893.007 69.6691 892.99 69.9281 893.006 70.1853C893.026 70.516 893.362 70.7069 893.682 70.6212C894.002 70.5354 894.181 70.2019 894.205 69.8713C894.21 69.7968 894.22 69.7225 894.235 69.6488C894.288 69.378 894.404 69.1233 894.572 68.9042C894.74 68.6852 894.956 68.5077 895.204 68.3856C895.271 68.3524 895.34 68.3235 895.411 68.2991C895.724 68.1907 896 67.9314 896 67.6Z" fill="#515258"/>
<rect x="121" y="79" width="32" height="32" rx="16" fill="#ECF2FA"/>
<path d="M139.084 92.2217C138.429 90.9049 137.07 90 135.5 90C133.291 90 131.5 91.7909 131.5 94C131.5 94.1318 131.506 94.262 131.519 94.3905C130.612 94.9065 130 95.8818 130 97C130 98.6569 131.343 100 133 100H141C142.657 100 144 98.6569 144 97C144 95.6912 143.162 94.5781 141.993 94.1682C141.998 94.1128 142 94.0567 142 94C142 92.8954 141.105 92 140 92C139.67 92 139.358 92.08 139.084 92.2217Z" fill="#515258"/>
<rect x="256" y="24" width="32" height="32" rx="16" fill="#ECF2FA"/>
<path fill-rule="evenodd" clip-rule="evenodd" d="M267.231 37.7408C266.819 37.7746 266.5 38.126 266.5 38.5505V40.4495C266.5 40.874 266.819 41.2254 267.231 41.2592C267.322 41.2667 267.412 41.2743 267.5 41.2822V44C267.5 44.8284 268.172 45.5 269 45.5C269.828 45.5 270.5 44.8284 270.5 44V41.7711C271.92 42.1734 273.099 42.8551 274.929 44.1299L275.287 44.3688C275.81 44.7171 276.5 44.3312 276.5 43.6905V41.2324C277.098 40.8866 277.5 40.2403 277.5 39.5C277.5 38.7597 277.098 38.1134 276.5 37.7676V35.3095C276.5 34.6688 275.81 34.2829 275.287 34.6312L274.929 34.8701C271.924 36.963 270.676 37.4575 267.231 37.7408ZM275.5 37.5V35.691L275.492 35.6966C273.981 36.7488 272.835 37.4543 271.597 37.92C271.238 38.0552 270.876 38.1683 270.5 38.2644V40.7356C270.876 40.8317 271.238 40.9448 271.597 41.08C272.835 41.5457 273.981 42.2512 275.492 43.3034L275.5 43.309V41.5V37.5Z" fill="#515258"/>
<rect x="112" y="290" width="32" height="32" rx="16" fill="#ECF2FA"/>
<path fill-rule="evenodd" clip-rule="evenodd" d="M126.5 303C127.052 303 127.5 302.552 127.5 302C127.5 301.448 127.052 301 126.5 301C125.948 301 125.5 301.448 125.5 302C125.5 302.552 125.948 303 126.5 303ZM131.232 303C131.403 302.706 131.5 302.364 131.5 302C131.5 300.895 130.605 300 129.5 300C128.903 300 128.366 300.262 128 300.677C127.634 300.262 127.097 300 126.5 300C125.395 300 124.5 300.895 124.5 302C124.5 302.364 124.597 302.706 124.768 303H122C121.448 303 121 303.448 121 304V306C121 306.552 121.448 307 122 307L122 311C122 312.105 122.895 313 124 313H132C133.105 313 134 312.105 134 311V307C134.552 307 135 306.552 135 306V304C135 303.448 134.552 303 134 303H131.232ZM126.5 304H122V306H127.5V304H126.5ZM129.5 304H134V306H128.5V304H129.5ZM129.5 303C128.948 303 128.5 302.552 128.5 302C128.5 301.448 128.948 301 129.5 301C130.052 301 130.5 301.448 130.5 302C130.5 302.552 130.052 303 129.5 303ZM123 311V307H127.5V312H124C123.448 312 123 311.552 123 311ZM128.5 312V307H133V311C133 311.552 132.552 312 132 312H128.5Z" fill="#515258"/>
<rect x="80" y="180" width="32" height="32" rx="16" fill="#ECF2FA"/>
<path d="M95.9982 198.758L92.7766 201.085L94.0465 197.301L90.8164 194.966H94.771L95.9982 191.182L97.2255 194.966H101.18L97.9499 197.301L99.2198 201.085L95.9982 198.758Z" fill="#515258"/>
<rect x="272" y="292" width="32" height="32" rx="16" fill="#ECF2FA"/>
<path fill-rule="evenodd" clip-rule="evenodd" d="M282.834 304.92L287.164 302.42C287.643 302.144 288.254 302.308 288.53 302.786L289.28 304.085C289.419 304.324 289.724 304.406 289.963 304.268C290.203 304.13 290.285 303.824 290.146 303.585L289.396 302.286C288.844 301.329 287.621 301.002 286.664 301.554L282.334 304.054C281.378 304.606 281.05 305.829 281.602 306.786L285.602 313.714C286.155 314.671 287.378 314.999 288.334 314.446L292.664 311.946C293.621 311.394 293.949 310.171 293.396 309.214L292.646 307.915C292.508 307.676 292.203 307.594 291.963 307.732C291.724 307.87 291.642 308.176 291.78 308.415L292.53 309.714C292.807 310.192 292.643 310.804 292.164 311.08L287.834 313.58C287.356 313.856 286.744 313.692 286.468 313.214L282.468 306.286C282.192 305.808 282.356 305.196 282.834 304.92ZM293.365 301.5C292.887 301.224 292.276 301.388 291.999 301.866L291.499 302.732L293.231 303.732L293.731 302.866C294.008 302.388 293.844 301.776 293.365 301.5ZM292.981 304.165L291.249 303.165L290.749 304.031L292.481 305.031L292.981 304.165ZM290.499 304.464L292.231 305.464L290.231 308.928L289.231 310.66L287.865 311.026L287.499 309.66L288.499 307.928L290.499 304.464Z" fill="#515258"/>
<rect x="697" y="304" width="32" height="32" rx="16" fill="#ECF2FA"/>
<path fill-rule="evenodd" clip-rule="evenodd" d="M710.086 318.432C710.521 318.075 710.834 317.573 710.95 317H713.5C713.776 317 714 316.776 714 316.5C714 316.224 713.776 316 713.5 316H710.95C710.718 314.859 709.709 314 708.5 314C707.119 314 706 315.119 706 316.5C706 317.881 707.119 319 708.5 319C708.737 319 708.967 318.967 709.184 318.905L711.11 321.312C711.282 321.528 711.597 321.563 711.812 321.39C712.028 321.218 712.063 320.903 711.89 320.688L710.086 318.432ZM716.5 324C716.5 325.381 715.381 326.5 714 326.5C712.619 326.5 711.5 325.381 711.5 324C711.5 322.619 712.619 321.5 714 321.5C715.381 321.5 716.5 322.619 716.5 324ZM717.5 319C718.881 319 720 317.881 720 316.5C720 315.119 718.881 314 717.5 314C716.119 314 715 315.119 715 316.5C715 317.881 716.119 319 717.5 319Z" fill="#515258"/>
<rect x="423" y="290" width="32" height="32" rx="16" fill="#ECF2FA"/>
<path d="M438.649 310.794C438.844 310.99 439.161 310.99 439.356 310.794L443.748 306.402C444.884 305.267 444.874 303.392 443.748 302.284C442.594 301.149 440.789 301.158 439.63 302.284L439.002 302.894L438.374 302.284C437.216 301.158 435.411 301.149 434.256 302.284C433.13 303.392 433.121 305.267 434.256 306.402L438.649 310.794Z" fill="#515258"/>
<rect x="385" y="14" width="32" height="32" rx="16" fill="#ECF2FA"/>
<path fill-rule="evenodd" clip-rule="evenodd" d="M397 25.6707C395.835 26.0825 395 27.1938 395 28.5V29H397V25.6707ZM398 29V25.5H404V29H402.5V28H399.5V29H398ZM397 30H395V34C395 34.5523 395.448 35 396 35H397V30ZM398 35H404V30H402.5V31.5H399.5V30H398V35ZM405 30V35H406C406.552 35 407 34.5523 407 34V30H405ZM405 29H407V28.5C407 27.1938 406.165 26.0825 405 25.6707V29ZM400.5 29C400.5 28.7239 400.724 28.5 401 28.5C401.276 28.5 401.5 28.7239 401.5 29V30.5C401.5 30.7761 401.276 31 401 31C400.724 31 400.5 30.7761 400.5 30.5V29Z" fill="#515258"/>
<rect x="631" y="14" width="32" height="32" rx="16" fill="#ECF2FA"/>
<path fill-rule="evenodd" clip-rule="evenodd" d="M652.359 25.7278C652.529 25.0052 651.88 24.3562 651.157 24.5258L650.815 24.6061C648.613 25.1231 646.762 26.5382 645.677 28.46C645.602 28.4241 645.519 28.407 645.434 28.4114L643.609 28.5075C643.486 28.514 643.369 28.5659 643.282 28.6533L641.638 30.2967C641.464 30.4711 641.621 30.7659 641.863 30.7189L643.432 30.4145C643.595 30.3829 643.763 30.4343 643.88 30.5518L644.631 31.302L644.495 31.7706C644.385 32.1489 644.736 32.4995 645.114 32.39L645.583 32.2543L646.333 33.0044C646.451 33.1219 646.502 33.2901 646.47 33.4532L646.166 35.0221C646.119 35.2642 646.414 35.4209 646.588 35.2465L648.232 33.603C648.319 33.5157 648.371 33.3991 648.377 33.2757L648.473 31.4505C648.478 31.3659 648.461 31.2826 648.425 31.2078C650.347 30.1224 651.762 28.2724 652.279 26.0701L652.359 25.7278ZM650.253 28.0462C649.862 28.4367 649.229 28.4367 648.839 28.0462C648.448 27.6557 648.448 27.0225 648.839 26.632C649.229 26.2414 649.862 26.2414 650.253 26.632C650.643 27.0225 650.643 27.6557 650.253 28.0462ZM642.196 33.1255L641.414 35.4708L643.759 34.689C644.631 34.3985 644.892 33.2921 644.242 32.6424C643.593 31.9926 642.486 32.2538 642.196 33.1255Z" fill="#515258"/>
<rect x="912" y="186" width="32" height="32" rx="16" fill="#ECF2FA"/>
<path d="M921 198.309C921 198.12 921.107 197.946 921.276 197.862L925 196V206L921.724 207.638C921.391 207.804 921 207.563 921 207.191V198.309Z" fill="#515258"/>
<path d="M926 196L930 198V208L926 206V196Z" fill="#515258"/>
<path d="M931 198L934.276 196.362C934.609 196.196 935 196.437 935 196.809V205.691C935 205.88 934.893 206.054 934.724 206.138L931 208V198Z" fill="#515258"/>
<rect x="871" y="281" width="32" height="32" rx="16" fill="#ECF2FA"/>
<path d="M886.554 299.621C887.19 299.621 887.664 300.206 887.532 300.828L887.232 302.243C887.15 302.633 887.447 303 887.845 303V303C888.141 303 888.397 302.793 888.458 302.503L888.902 300.413C889 299.951 889.408 299.621 889.88 299.621H890.763C891.075 299.621 891.328 299.368 891.328 299.056V299.056C891.328 298.745 891.075 298.492 890.763 298.492H890.422C889.845 298.492 889.415 297.961 889.535 297.397L889.753 296.367C889.851 295.905 890.259 295.574 890.731 295.574H891.427C891.744 295.574 892 295.318 892 295.001V295.001C892 294.685 891.744 294.429 891.427 294.429H891.179C890.656 294.429 890.266 293.947 890.376 293.435L890.735 291.758C890.819 291.368 890.522 291 890.123 291V291C889.828 291 889.572 291.206 889.51 291.495L889.051 293.638C888.952 294.099 888.545 294.429 888.073 294.429H887.753C887.116 294.429 886.642 293.842 886.775 293.219L887.089 291.758C887.172 291.368 886.875 291 886.476 291V291C886.181 291 885.925 291.206 885.863 291.495L885.404 293.638C885.305 294.099 884.898 294.429 884.426 294.429H883.254C882.937 294.429 882.681 294.685 882.681 295.001V295.001C882.681 295.318 882.937 295.574 883.254 295.574H883.759C884.394 295.574 884.869 296.16 884.737 296.781L884.543 297.699C884.445 298.161 884.037 298.492 883.564 298.492H882.565C882.253 298.492 882 298.745 882 299.056V299.056C882 299.368 882.253 299.621 882.565 299.621H882.958C883.568 299.621 884.023 300.182 883.896 300.778L883.585 302.243C883.503 302.633 883.8 303 884.198 303V303C884.494 303 884.75 302.793 884.811 302.503L885.255 300.413C885.353 299.951 885.761 299.621 886.233 299.621H886.554ZM886.89 298.492C886.254 298.492 885.78 297.906 885.912 297.284L886.106 296.367C886.204 295.905 886.612 295.574 887.084 295.574H887.406C888.041 295.574 888.516 296.16 888.384 296.781L888.189 297.699C888.092 298.161 887.684 298.492 887.211 298.492H886.89Z" fill="#515258"/>
<rect x="749" y="28" width="32" height="32" rx="16" fill="#ECF2FA"/>
<path fill-rule="evenodd" clip-rule="evenodd" d="M768.512 38.8917C768.617 38.421 769.261 38.3565 769.457 38.7971L771.254 42.8402C771.366 43.0925 771.252 43.388 771 43.5002V43.5002C770.748 43.6123 770.452 43.4987 770.34 43.2463L769.467 41.2822C769.369 41.0619 769.047 41.0941 768.995 41.3295L767.488 48.1086C767.377 48.6097 766.673 48.6378 766.522 48.1472L765.111 43.5611C765.043 43.3403 764.737 43.322 764.644 43.5331L763.457 46.2032C763.297 46.5633 762.803 46.6054 762.584 46.2775L761 43.9016L759.693 45.8615C759.54 46.0913 759.23 46.1533 759 46.0002V46.0002C758.77 45.847 758.708 45.5366 758.861 45.3068L760.584 42.7228C760.782 42.4259 761.218 42.4259 761.416 42.7228L762.66 44.5889C762.769 44.7529 763.017 44.7318 763.097 44.5518L764.543 41.2971C764.731 40.8747 765.342 40.9114 765.478 41.3531L766.644 45.143C766.719 45.3883 767.071 45.3743 767.127 45.1237L768.512 38.8917Z" fill="#515258"/>
<rect x="577" y="324" width="32" height="32" rx="16" fill="#ECF2FA"/>
<path d="M596.471 334.982C596.861 334.592 597.494 334.592 597.885 334.982L598.167 335.265C598.558 335.655 598.558 336.288 598.167 336.679L596.33 338.516L594.633 336.82L596.471 334.982Z" fill="#515258"/>
<path d="M589.191 333.781C589.387 333.586 589.703 333.586 589.898 333.781L598.946 342.828C599.141 343.023 599.141 343.34 598.946 343.535L597.108 345.373C596.913 345.568 596.596 345.568 596.401 345.373L595.482 344.454L597.179 342.758L596.331 341.909L594.634 343.606L593.362 342.333L595.058 340.637L594.21 339.789L592.514 341.485L591.241 340.213L592.938 338.517L592.09 337.668L590.393 339.365L589.121 338.092L590.817 336.396L589.969 335.548L588.273 337.244L587.354 336.325C587.159 336.13 587.159 335.814 587.354 335.618L589.191 333.781Z" fill="#515258"/>
<path d="M587.848 345.302L591.241 343.606L592.089 342.757L590.393 341.061L589.544 341.909L587.848 345.302Z" fill="#515258"/>
<rect x="793" y="108" width="32" height="32" rx="16" fill="#ECF2FA"/>
<g clip-path="url(#clip0_1733_1800)">
<path fill-rule="evenodd" clip-rule="evenodd" d="M814.425 120.884C814.572 121.031 814.572 121.272 814.425 121.419C814.278 121.566 814.035 121.566 813.888 121.419C813.818 121.348 813.778 121.253 813.778 121.153C813.778 120.945 813.95 120.775 814.158 120.775C814.258 120.775 814.354 120.814 814.425 120.884L814.425 120.884ZM812.101 119.674C812.385 119.73 812.663 119.815 812.931 119.926C813.118 120.004 813.208 120.222 813.131 120.409C813.074 120.547 812.939 120.637 812.79 120.637C812.742 120.637 812.694 120.628 812.649 120.609H812.648C812.428 120.518 812.2 120.448 811.966 120.401C811.96 120.399 811.954 120.398 811.947 120.397C811.72 120.352 811.488 120.329 811.256 120.328H811.237C810.71 120.328 810.222 120.045 809.959 119.589C809.957 119.586 809.956 119.583 809.954 119.58C809.713 119.163 809.392 118.797 809.01 118.504C807.394 117.261 805.079 117.566 803.838 119.186C803.768 119.277 803.66 119.331 803.545 119.331C803.342 119.331 803.176 119.164 803.176 118.961C803.176 118.88 803.203 118.801 803.252 118.736C803.256 118.731 803.26 118.727 803.264 118.722C803.616 118.266 804.053 117.883 804.552 117.595C806.668 116.37 809.375 117.097 810.599 119.218V119.219L810.602 119.224C810.731 119.445 810.966 119.583 811.221 119.588H811.238C811.527 119.588 811.817 119.617 812.101 119.674H812.101ZM802.938 124.401C802.941 124.395 802.945 124.389 802.949 124.383C803.074 124.159 803.074 123.885 802.948 123.661C802.944 123.655 802.941 123.648 802.937 123.642C802.355 122.628 802.199 121.423 802.501 120.293C802.544 120.132 802.691 120.02 802.858 120.02C803.06 120.02 803.227 120.186 803.227 120.389C803.227 120.421 803.223 120.453 803.214 120.484C802.962 121.426 803.093 122.431 803.578 123.276C803.582 123.283 803.586 123.29 803.59 123.297C803.844 123.747 803.844 124.3 803.589 124.75C803.584 124.758 803.579 124.767 803.574 124.775C803.337 125.191 803.182 125.649 803.12 126.124C802.854 128.145 804.276 129.998 806.297 130.264V130.265C806.48 130.289 806.618 130.447 806.618 130.631C806.618 130.647 806.617 130.663 806.615 130.679C806.589 130.88 806.402 131.023 806.202 130.997H806.202C805.626 130.921 805.07 130.732 804.566 130.441C802.45 129.22 801.723 126.518 802.938 124.401ZM803.575 124.837C803.585 124.829 803.594 124.82 803.601 124.811L803.602 124.81C803.594 124.819 803.585 124.829 803.575 124.837ZM807.924 130.919C807.722 130.972 807.511 130.852 807.457 130.651C807.403 130.451 807.525 130.242 807.727 130.188C807.757 130.18 807.789 130.176 807.821 130.176C808.03 130.176 808.202 130.347 808.202 130.555C808.202 130.723 808.088 130.873 807.924 130.919H807.924ZM811.267 128.432C811.007 128.432 810.765 128.569 810.632 128.792C810.63 128.795 810.628 128.798 810.627 128.801C810.481 129.053 810.311 129.289 810.12 129.507C810.181 129.437 810.181 129.438 810.12 129.507C810.116 129.512 810.112 129.516 810.108 129.52C809.92 129.733 809.711 129.928 809.485 130.101C809.324 130.224 809.09 130.193 808.966 130.033C808.842 129.872 808.873 129.638 809.034 129.515C809.226 129.368 809.403 129.202 809.563 129.02C809.504 129.088 809.504 129.087 809.563 129.02C809.568 129.015 809.572 129.01 809.577 129.005C809.728 128.83 809.863 128.642 809.979 128.443C809.981 128.438 809.984 128.435 809.986 128.43C810.25 127.975 810.739 127.693 811.267 127.693C811.753 127.693 812.234 127.597 812.682 127.412C814.566 126.633 815.463 124.479 814.689 122.597C814.688 122.593 814.686 122.59 814.685 122.586C814.667 122.542 814.658 122.495 814.658 122.448C814.658 122.245 814.825 122.078 815.028 122.078C815.176 122.078 815.31 122.167 815.368 122.303C815.591 122.841 815.706 123.417 815.706 124C815.706 126.448 813.718 128.432 811.267 128.432L811.267 128.432ZM810.909 121.104C811.007 121.093 811.105 121.087 811.203 121.086C811.213 121.086 811.223 121.086 811.233 121.086C812.856 121.086 814.191 122.416 814.191 124.033C814.191 125.65 812.856 126.981 811.233 126.981C811.125 126.981 811.017 126.975 810.91 126.963C810.302 126.917 809.726 127.249 809.462 127.796C808.991 128.865 807.925 129.559 806.753 129.559C805.131 129.559 803.795 128.228 803.795 126.611C803.795 125.977 804 125.36 804.38 124.852C804.715 124.351 804.71 123.695 804.369 123.199C804.333 123.151 804.299 123.102 804.267 123.052C803.96 122.576 803.797 122.023 803.797 121.457C803.797 119.84 805.132 118.51 806.755 118.51C807.926 118.51 808.992 119.203 809.463 120.272C809.726 120.818 810.302 121.15 810.909 121.104H810.909ZM804.914 127.757C805.307 128.447 806.036 128.873 806.823 128.873C808.033 128.873 809.028 127.866 809.028 126.642C809.028 125.419 808.033 124.412 806.823 124.412C806.436 124.412 806.056 124.515 805.721 124.711C804.674 125.323 804.309 126.698 804.914 127.757ZM809.32 125.149C809.713 125.839 810.443 126.265 811.229 126.265C812.439 126.265 813.434 125.258 813.434 124.034C813.434 122.811 812.439 121.804 811.229 121.804C810.842 121.804 810.462 121.907 810.127 122.103C809.08 122.715 808.716 124.09 809.32 125.149ZM806.825 123.657C808.034 123.656 809.028 122.65 809.028 121.426C809.028 120.203 808.033 119.196 806.825 119.196C805.616 119.196 804.622 120.203 804.622 121.426C804.622 121.427 804.622 121.427 804.622 121.427C804.622 122.65 805.616 123.657 806.825 123.657C806.825 123.657 806.825 123.657 806.825 123.657Z" fill="#515258"/>
</g>
<rect x="503" y="35" width="32" height="32" rx="16" fill="#ECF2FA"/>
<path fill-rule="evenodd" clip-rule="evenodd" d="M517.912 45.653L517.627 45.3323L518.374 44.668L518.659 44.9887C519.217 45.6164 519.423 46.4823 519.206 47.2937L518.984 48.129L518.017 47.8713L518.24 47.0361C518.37 46.5492 518.247 46.0297 517.912 45.653ZM521.919 52.6905C522.215 52.5079 522.239 52.087 521.966 51.8721L517.161 48.0923C516.883 47.8733 516.471 48.0052 516.372 48.3453L514.337 55.3243C514.081 56.2037 515.044 56.9363 515.823 56.4551L521.919 52.6905ZM523.394 50.4644C524.12 49.8422 525.044 49.5002 526.001 49.5002V48.5002C524.806 48.5002 523.65 48.9276 522.743 49.7052L521.675 50.6205L522.326 51.3798L523.394 50.4644ZM525.001 53.5002C525.001 53.7763 524.777 54.0002 524.501 54.0002C524.224 54.0002 524.001 53.7763 524.001 53.5002C524.001 53.224 524.224 53.0002 524.501 53.0002C524.777 53.0002 525.001 53.224 525.001 53.5002ZM520.501 46.0002C520.777 46.0002 521.001 45.7763 521.001 45.5002C521.001 45.224 520.777 45.0002 520.501 45.0002C520.224 45.0002 520.001 45.224 520.001 45.5002C520.001 45.7763 520.224 46.0002 520.501 46.0002ZM516.005 47.3695C515.877 47.6143 515.376 47.6053 514.887 47.3496C514.397 47.0938 514.104 46.688 514.232 46.4433C514.36 46.1986 514.861 46.2075 515.35 46.4633C515.839 46.719 516.133 47.1248 516.005 47.3695ZM514.242 49.9381C514.726 49.6717 515.01 49.2597 514.877 49.0178C514.743 48.7759 514.243 48.7958 513.759 49.0622C513.276 49.3286 512.991 49.7406 513.125 49.9825C513.258 50.2244 513.758 50.2045 514.242 49.9381ZM524.001 51.5002C524.001 51.7763 523.777 52.0002 523.501 52.0002C523.224 52.0002 523.001 51.7763 523.001 51.5002C523.001 51.224 523.224 51.0002 523.501 51.0002C523.777 51.0002 524.001 51.224 524.001 51.5002ZM525.001 46.3821V45.0002H524.001V46.3821C524.001 46.5241 523.851 46.6164 523.724 46.5529L523.621 46.5016C522.877 46.1292 522.001 46.6707 522.001 47.5033V47.5909C522.001 47.6166 521.994 47.63 521.988 47.6385C521.98 47.6492 521.967 47.6606 521.949 47.6682C521.931 47.6758 521.913 47.677 521.9 47.6748C521.89 47.673 521.876 47.6683 521.858 47.6501C521.374 47.1665 520.569 47.2462 520.19 47.8153L519.585 48.7228L520.417 49.2775L521.022 48.37C521.051 48.326 521.113 48.3198 521.151 48.3572C521.833 49.0399 523.001 48.5564 523.001 47.5909V47.5033C523.001 47.4141 523.094 47.3561 523.174 47.396L523.277 47.4474C524.069 47.8433 525.001 47.2675 525.001 46.3821Z" fill="#515258"/>
<rect x="786" y="252" width="32" height="32" rx="16" fill="#ECF2FA"/>
<path fill-rule="evenodd" clip-rule="evenodd" d="M801.705 263.32C801.941 263.227 802.203 263.227 802.438 263.32L807.962 265.495C808.384 265.662 808.384 266.259 807.962 266.426L802.438 268.602C802.203 268.694 801.941 268.694 801.705 268.602L798.463 267.324C797.856 267.683 797.501 268.13 797.501 269.057L797.501 270.812L797.491 271.488C797.482 272.047 796.98 272.467 796.429 272.378C795.93 272.297 795.59 271.825 795.738 271.342C795.829 271.046 795.951 270.731 796.105 270.495C796.501 269.889 796.501 269.886 796.501 269.057V269.057C796.501 268.054 796.826 267.407 797.396 266.904L796.182 266.426C795.759 266.259 795.759 265.662 796.182 265.495L801.705 263.32ZM798.488 268.084C798.177 268.653 798.001 269.306 798.001 270C798.001 272.209 799.791 274 802.001 274C804.21 274 806.001 272.209 806.001 270C806.001 269.325 805.833 268.689 805.538 268.131L802.438 269.352C802.203 269.444 801.941 269.444 801.705 269.352L798.488 268.084ZM800.251 271C800.665 271 801.001 270.664 801.001 270.25C801.001 269.836 800.665 269.5 800.251 269.5C799.836 269.5 799.501 269.836 799.501 270.25C799.501 270.664 799.836 271 800.251 271ZM803.9 272.323C804.028 272.218 804.027 272.026 803.91 271.909C803.793 271.792 803.604 271.794 803.473 271.895C803.054 272.221 802.537 272.4 802.001 272.4C801.465 272.4 800.947 272.221 800.528 271.895C800.398 271.794 800.209 271.792 800.091 271.909C799.974 272.026 799.973 272.218 800.102 272.323C800.635 272.759 801.305 273 802.001 273C802.696 273 803.366 272.759 803.9 272.323ZM804.501 270.25C804.501 270.664 804.165 271 803.751 271C803.336 271 803.001 270.664 803.001 270.25C803.001 269.836 803.336 269.5 803.751 269.5C804.165 269.5 804.501 269.836 804.501 270.25Z" fill="#515258"/>
<rect x="214" y="108" width="32" height="32" rx="16" fill="#ECF2FA"/>
<path d="M227.443 121.498V120.66H226.201L226.195 120.08C226.195 119.854 226.225 119.652 226.283 119.477C226.342 119.301 226.434 119.154 226.559 119.037C226.68 118.916 226.836 118.826 227.027 118.768C227.219 118.705 227.441 118.672 227.695 118.668C227.852 118.668 227.998 118.684 228.135 118.715C228.275 118.746 228.396 118.787 228.498 118.838L228.633 117.977C228.449 117.91 228.27 117.855 228.094 117.812C227.922 117.77 227.744 117.748 227.561 117.748C227.186 117.748 226.848 117.799 226.547 117.9C226.246 118.002 225.99 118.15 225.779 118.346C225.564 118.545 225.4 118.791 225.287 119.084C225.174 119.373 225.117 119.705 225.117 120.08V120.66H224.08V121.498H225.117V127.305C225.113 127.559 225.078 127.781 225.012 127.973C224.949 128.164 224.855 128.318 224.73 128.436C224.648 128.51 224.551 128.566 224.438 128.605C224.328 128.648 224.207 128.67 224.074 128.67C223.988 128.67 223.852 128.654 223.664 128.623C223.48 128.592 223.332 128.545 223.219 128.482L223.137 129.35C223.289 129.428 223.443 129.482 223.6 129.514C223.756 129.545 223.914 129.561 224.074 129.561C224.406 129.561 224.703 129.51 224.965 129.408C225.23 129.311 225.455 129.166 225.639 128.975C225.818 128.787 225.957 128.553 226.055 128.271C226.152 127.99 226.201 127.668 226.201 127.305V121.498H227.443Z" fill="#515258"/>
<path d="M232.089 126.264V125.358C231.416 125.358 231.279 125.099 231.279 124.551V123.721C231.279 123.284 231.092 122.892 230.268 122.724V122.611C231.092 122.443 231.279 122.051 231.279 121.616V120.787C231.279 120.236 231.416 119.977 232.089 119.977V119.074C230.941 119.074 230.12 119.264 230.12 120.665V121.292C230.12 121.875 229.901 122.122 229.248 122.122V123.213C229.901 123.213 230.12 123.46 230.12 124.042V124.673C230.12 126.074 230.941 126.264 232.089 126.264Z" fill="#515258"/>
<path d="M233.385 119.071V119.977C234.058 119.977 234.194 120.236 234.194 120.784V121.613C234.194 122.051 234.382 122.443 235.206 122.611V122.724C234.382 122.892 234.194 123.284 234.194 123.719V124.548C234.194 125.099 234.058 125.358 233.385 125.358V126.261C234.532 126.261 235.354 126.071 235.354 124.67V124.042C235.354 123.46 235.572 123.213 236.226 123.213V122.122C235.572 122.122 235.354 121.875 235.354 121.292V120.662C235.354 119.261 234.532 119.071 233.385 119.071Z" fill="#515258"/>
<rect x="203" y="246" width="32" height="32" rx="16" fill="#ECF2FA"/>
<path fill-rule="evenodd" clip-rule="evenodd" d="M220.061 256.061L220.556 256.556H221.334H222.834V258.056V258.834L223.439 259.439L224.5 260.5L223.439 261.561L222.834 262.166V262.834V264.334H221.538V268.538L219 266.635L216.462 268.538V264.334H215.056V262.834V262.056L214.561 261.561L213.5 260.5L214.561 259.439L215.056 258.944V258.056V256.556H216.556H217.444L217.939 256.061L219 255L220.061 256.061ZM220.556 258.056H221.334V258.834V259.455L221.773 259.894L222.379 260.5L221.773 261.106L221.334 261.545V262.166V262.834H220.666H220.045L219.606 263.273L219 263.879L218.394 263.273L217.955 262.834H217.334H216.556V262.056V261.434L216.116 260.995L215.621 260.5L216.116 260.005L216.556 259.566V258.944V258.056H217.444H218.066L218.505 257.616L219 257.121L219.495 257.616L219.934 258.056H220.556Z" fill="#515258"/>
</g>
<defs>
<radialGradient id="paint0_radial_1733_1800" cx="0" cy="0" r="1" gradientUnits="userSpaceOnUse" gradientTransform="translate(512 178) rotate(90) scale(178 512)">
<stop stop-color="#CBE0FF"/>
<stop offset="1" stop-color="white" stop-opacity="0"/>
</radialGradient>
<clipPath id="clip0_1733_1800">
<rect width="14" height="14" fill="white" transform="translate(802 117)"/>
</clipPath>
</defs>
</svg>
