<svg width="566" height="133" viewBox="0 0 566 133" fill="none" xmlns="http://www.w3.org/2000/svg">
<path fill-rule="evenodd" clip-rule="evenodd" d="M115.725 36.8257C117.136 38.2183 117.136 40.5092 115.725 41.9018C114.313 43.2934 111.989 43.2934 110.577 41.9018C109.904 41.23 109.526 40.3226 109.526 39.3783C109.526 37.4087 111.17 35.7879 113.168 35.7879C114.125 35.7879 115.045 36.16 115.726 36.8231L115.725 36.8257ZM93.4486 25.3499C96.1734 25.8879 98.8385 26.6896 101.406 27.7431C103.198 28.4782 104.063 30.5451 103.322 32.3222C102.777 33.6296 101.484 34.4866 100.056 34.4866C99.592 34.4866 99.132 34.3959 98.7031 34.2196H98.6966C96.5866 33.3527 94.397 32.6906 92.1583 32.2424C92.0986 32.2321 92.0401 32.2205 91.9803 32.2076C89.7972 31.7826 87.5785 31.5632 85.3537 31.552H85.1718C80.126 31.5517 75.4481 28.875 72.9243 24.5436C72.9087 24.5165 72.8918 24.4882 72.8775 24.4598C70.5623 20.5078 67.4902 17.0421 63.8341 14.2583C48.3434 2.47441 26.1533 5.37064 14.2618 20.7283C13.5929 21.5934 12.554 22.1015 11.4545 22.1015C9.51419 22.1015 7.91753 20.5187 7.91753 18.5953C7.91753 17.8242 8.17412 17.0742 8.6473 16.4622C8.68368 16.4158 8.72136 16.3708 8.75904 16.3257C12.1343 12.0036 16.3272 8.37468 21.1028 5.64242C41.3894 -5.97147 67.3319 0.918425 79.0532 21.0297V21.0361L79.0831 21.0864C80.3226 23.1782 82.573 24.4883 85.0198 24.5423H85.177C87.9559 24.5422 90.7282 24.8126 93.4538 25.3499H93.4486ZM5.64205 70.173C5.67194 70.1164 5.70574 70.0599 5.73953 70.0046C6.94297 67.8777 6.93951 65.2766 5.73044 63.153C5.69534 63.0951 5.66284 63.0372 5.63035 62.9794C0.0550638 53.3592 -1.44784 41.9354 1.45265 31.2239C1.86581 29.6989 3.27341 28.6304 4.86929 28.6304C6.80976 28.6304 8.40653 30.21 8.40653 32.1298C8.40653 32.4358 8.36598 32.7403 8.28593 33.0358C5.86848 41.9658 7.1241 51.4894 11.776 59.5073C11.815 59.5716 11.8527 59.6372 11.8891 59.704C14.3244 63.9756 14.32 69.2129 11.8774 73.4805C11.8319 73.5615 11.7851 73.6425 11.7331 73.721C9.45825 77.6653 7.98055 82.0099 7.38254 86.5124C4.83354 105.673 18.465 123.243 37.8327 125.766V125.774C39.5837 126.002 40.9072 127.495 40.9072 129.242C40.9072 129.395 40.8971 129.547 40.8769 129.699C40.6238 131.599 38.8366 132.959 36.915 132.712H36.9215C31.3951 131.991 26.0661 130.199 21.2402 127.439C0.957414 115.866 -6.00714 90.2417 5.64205 70.173ZM11.7459 74.3075C11.837 74.2295 11.9208 74.1472 11.9969 74.0612L12.0066 74.0498C11.9276 74.1397 11.8405 74.2258 11.7459 74.3075ZM53.4191 131.969C51.4853 132.478 49.4671 131.335 48.9482 129.436C48.4293 127.536 49.5947 125.553 51.5298 125.044C51.8245 124.97 52.1274 124.932 52.4314 124.932C54.4343 124.932 56.0825 126.551 56.0825 128.518C56.0825 130.119 54.9901 131.535 53.4205 131.969H53.4191ZM85.4637 108.388C82.9682 108.388 80.65 109.689 79.3723 111.807C79.3567 111.836 79.3398 111.866 79.3228 111.894C77.9296 114.277 76.3026 116.519 74.4654 118.588C75.0543 117.923 75.0556 117.927 74.4654 118.588C74.4289 118.629 74.3924 118.669 74.3547 118.707C72.5459 120.728 70.5444 122.572 68.378 124.214C66.8357 125.384 64.592 125.094 63.4072 123.57C62.2233 122.047 62.5174 119.831 64.0587 118.66C65.9011 117.263 67.6 115.69 69.1311 113.965C68.5617 114.601 68.563 114.609 69.1311 113.965C69.1754 113.916 69.2197 113.869 69.2614 113.824C70.7129 112.169 72.0041 110.385 73.1181 108.492C73.139 108.453 73.1611 108.416 73.1833 108.378C75.7151 104.055 80.4022 101.385 85.4571 101.385C90.113 101.385 94.7235 100.479 99.0248 98.7183C117.077 91.331 125.672 70.9146 118.258 53.065C118.242 53.0315 118.227 52.9967 118.212 52.962C118.043 52.5461 117.955 52.1019 117.955 51.6535C117.955 49.7321 119.556 48.1511 121.501 48.1511C122.918 48.1511 124.204 48.9899 124.761 50.2769C126.9 55.3779 128 60.8456 128 66.367C128 89.5791 108.952 108.397 85.4558 108.397L85.4637 108.388ZM82.0272 38.9086C82.9637 38.8076 83.9038 38.752 84.8473 38.7417C84.9438 38.7407 85.0404 38.7403 85.137 38.7403C100.688 38.7403 113.485 51.3563 113.485 66.688C113.485 82.0195 100.688 94.6356 85.137 94.6356C84.1002 94.6356 83.0642 94.5795 82.0337 94.4675C76.2143 94.0267 70.6875 97.1713 68.1633 102.359C63.6501 112.498 53.4344 119.076 42.2045 119.076C26.6528 119.076 13.8557 106.46 13.8557 91.1274C13.8557 85.1194 15.8207 79.2685 19.4575 74.4477C22.6652 69.7014 22.6223 63.4759 19.3494 58.7731C19.0109 58.317 18.6867 57.8518 18.3768 57.3778C15.4362 52.8697 13.8722 47.6214 13.8722 42.2615C13.8722 26.9306 26.668 14.3152 42.2184 14.3152C53.4428 14.3152 63.6544 20.8881 68.1698 31.0193C70.6938 36.2024 76.2147 39.3451 82.0298 38.9086H82.0272ZM24.5743 101.996C28.3437 108.531 35.3328 112.569 42.8718 112.569C54.4624 112.569 64 103.023 64 91.4219C64 79.8208 54.4624 70.2745 42.8718 70.2745C39.1631 70.2745 35.519 71.2519 32.3073 73.1081C22.2711 78.9098 18.7807 91.9486 24.5743 101.996ZM66.8007 77.2688C70.57 83.8041 77.5594 87.8431 85.0986 87.8431C96.6893 87.8431 106.227 78.2969 106.227 66.6957C106.227 55.0946 96.6893 45.5483 85.0986 45.5483C81.3903 45.5483 77.7465 46.5255 74.535 48.3813C64.4984 54.1825 61.0074 67.2215 66.8007 77.2688ZM42.8931 63.1169C54.473 63.1133 64 53.5681 64 41.9695C64 30.3684 54.469 20.8221 42.8866 20.8221C31.304 20.8221 21.7732 30.3684 21.7732 41.9695C21.7732 41.9708 21.7732 41.9721 21.7732 41.9734C21.776 53.5733 31.3066 63.1169 42.8879 63.1169C42.8896 63.1169 42.8913 63.1169 42.8931 63.1169Z" fill="#515258"/>
<path d="M225.591 20.2794H245.273V80.734C245.273 87.5219 243.652 93.4613 240.409 98.5522C237.197 103.643 232.697 107.613 226.909 110.461C221.121 113.279 214.379 114.689 206.682 114.689C198.955 114.689 192.197 113.279 186.409 110.461C180.621 107.613 176.121 103.643 172.909 98.5522C169.697 93.4613 168.091 87.5219 168.091 80.734V20.2794H187.773V79.0522C187.773 82.5976 188.545 85.7491 190.091 88.5067C191.667 91.2643 193.879 93.431 196.727 95.0067C199.576 96.5825 202.894 97.3704 206.682 97.3704C210.5 97.3704 213.818 96.5825 216.636 95.0067C219.485 93.431 221.682 91.2643 223.227 88.5067C224.803 85.7491 225.591 82.5976 225.591 79.0522V20.2794ZM274.066 73.0067V113.37H254.702V43.5522H273.157V55.8704H273.975C275.52 51.8098 278.111 48.5976 281.748 46.234C285.384 43.8401 289.793 42.6431 294.975 42.6431C299.823 42.6431 304.051 43.7037 307.657 45.8249C311.263 47.9461 314.066 50.9764 316.066 54.9158C318.066 58.8249 319.066 63.4916 319.066 68.9158V113.37H299.702V72.3704C299.733 68.0976 298.642 64.7643 296.43 62.3704C294.217 59.9461 291.172 58.734 287.293 58.734C284.687 58.734 282.384 59.2946 280.384 60.4158C278.414 61.537 276.869 63.1734 275.748 65.3249C274.657 67.4461 274.096 70.0067 274.066 73.0067ZM327.927 113.37V43.5522H347.291V113.37H327.927ZM337.655 34.5522C334.776 34.5522 332.306 33.5976 330.245 31.6885C328.215 29.7491 327.2 27.431 327.2 24.734C327.2 22.0673 328.215 19.7794 330.245 17.8704C332.306 15.931 334.776 14.9613 337.655 14.9613C340.533 14.9613 342.988 15.931 345.018 17.8704C347.079 19.7794 348.109 22.0673 348.109 24.734C348.109 27.431 347.079 29.7491 345.018 31.6885C342.988 33.5976 340.533 34.5522 337.655 34.5522ZM414.493 63.4613L396.766 64.5522C396.463 63.037 395.811 61.6734 394.811 60.4613C393.811 59.2188 392.493 58.234 390.857 57.5067C389.251 56.7491 387.327 56.3704 385.084 56.3704C382.084 56.3704 379.554 57.0067 377.493 58.2794C375.433 59.5219 374.402 61.1885 374.402 63.2794C374.402 64.9461 375.069 66.3552 376.402 67.5067C377.736 68.6582 380.023 69.5825 383.266 70.2794L395.902 72.8249C402.69 74.2188 407.751 76.4613 411.084 79.5522C414.417 82.6431 416.084 86.7037 416.084 91.734C416.084 96.3098 414.736 100.325 412.039 103.779C409.372 107.234 405.705 109.931 401.039 111.87C396.402 113.779 391.054 114.734 384.993 114.734C375.751 114.734 368.387 112.81 362.902 108.961C357.448 105.082 354.251 99.8098 353.311 93.1431L372.357 92.1431C372.933 94.9613 374.327 97.1128 376.539 98.5976C378.751 100.052 381.584 100.779 385.039 100.779C388.433 100.779 391.16 100.128 393.22 98.8249C395.311 97.4916 396.372 95.7795 396.402 93.6885C396.372 91.931 395.63 90.4916 394.175 89.3704C392.72 88.2188 390.478 87.3401 387.448 86.734L375.357 84.3249C368.539 82.9613 363.463 80.5976 360.13 77.234C356.827 73.8704 355.175 69.5825 355.175 64.3704C355.175 59.8855 356.387 56.0219 358.811 52.7794C361.266 49.537 364.705 47.037 369.13 45.2794C373.584 43.5219 378.796 42.6431 384.766 42.6431C393.584 42.6431 400.523 44.5067 405.584 48.234C410.675 51.9613 413.645 57.037 414.493 63.4613ZM453.423 114.734C446.362 114.734 440.256 113.234 435.105 110.234C429.983 107.204 426.029 102.992 423.241 97.5976C420.453 92.1734 419.059 85.8855 419.059 78.734C419.059 71.5219 420.453 65.2188 423.241 59.8249C426.029 54.4007 429.983 50.1885 435.105 47.1885C440.256 44.1582 446.362 42.6431 453.423 42.6431C460.483 42.6431 466.574 44.1582 471.695 47.1885C476.847 50.1885 480.817 54.4007 483.605 59.8249C486.392 65.2188 487.786 71.5219 487.786 78.734C487.786 85.8855 486.392 92.1734 483.605 97.5976C480.817 102.992 476.847 107.204 471.695 110.234C466.574 113.234 460.483 114.734 453.423 114.734ZM453.514 99.734C456.726 99.734 459.408 98.8249 461.559 97.0067C463.711 95.1582 465.332 92.6431 466.423 89.4613C467.544 86.2795 468.105 82.6582 468.105 78.5976C468.105 74.537 467.544 70.9158 466.423 67.734C465.332 64.5522 463.711 62.037 461.559 60.1885C459.408 58.3401 456.726 57.4158 453.514 57.4158C450.271 57.4158 447.544 58.3401 445.332 60.1885C443.15 62.037 441.498 64.5522 440.377 67.734C439.286 70.9158 438.741 74.537 438.741 78.5976C438.741 82.6582 439.286 86.2795 440.377 89.4613C441.498 92.6431 443.15 95.1582 445.332 97.0067C447.544 98.8249 450.271 99.734 453.514 99.734ZM513.341 73.0067V113.37H493.977V43.5522H512.432V55.8704H513.25C514.795 51.8098 517.386 48.5976 521.023 46.234C524.659 43.8401 529.068 42.6431 534.25 42.6431C539.098 42.6431 543.326 43.7037 546.932 45.8249C550.538 47.9461 553.341 50.9764 555.341 54.9158C557.341 58.8249 558.341 63.4916 558.341 68.9158V113.37H538.977V72.3704C539.008 68.0976 537.917 64.7643 535.705 62.3704C533.492 59.9461 530.447 58.734 526.568 58.734C523.962 58.734 521.659 59.2946 519.659 60.4158C517.689 61.537 516.144 63.1734 515.023 65.3249C513.932 67.4461 513.371 70.0067 513.341 73.0067Z" fill="#18181C"/>
</svg>
